<?xml version="1.0" standalone="no"?>
<!DOCTYPE svg PUBLIC "-//W3C//DTD SVG 1.1//EN" "http://www.w3.org/Graphics/SVG/1.1/DTD/svg11.dtd" >
<!--
2013-9-30: Created.
-->
<svg>
<metadata>
Created by iconfont
</metadata>
<defs>

<font id="iconfont" horiz-adv-x="1024" >
  <font-face
    font-family="iconfont"
    font-weight="500"
    font-stretch="normal"
    units-per-em="1024"
    ascent="896"
    descent="-128"
  />
    <missing-glyph />
    
    <glyph glyph-name="zanting1" unicode="&#58881;" d="M511.3887 830.1496c-246.359 0-446.7958-200.4357-446.7958-446.7958 0-246.357 200.4357-446.7958 446.7958-446.7958 246.359 0 446.7978 200.4378 446.7978 446.7958C958.1865 629.7129 757.7477 830.1496 511.3887 830.1496zM511.3887-7.593c-215.5715 0-390.9458 175.3764-390.9458 390.9468 0 215.5725 175.3743 390.9468 390.9458 390.9468 215.5715 0 390.9468-175.3743 390.9468-390.9468C902.3355 167.7824 726.9591-7.593 511.3887-7.593zM427.6142 578.8273c-15.4337 0-27.9255-12.5174-27.9255-27.9255L399.6887 215.804928c0-15.4061 12.4908-27.9255 27.9255-27.9255 15.4081 0 27.9245 12.5204 27.9245 27.9255L455.5387 550.90176C455.5387 566.3099 443.0223 578.8273 427.6142 578.8273zM595.1621 578.8273c-15.4348 0-27.9245-12.5174-27.9245-27.9255L567.2376 215.804928c0-15.4061 12.4887-27.9255 27.9245-27.9255 15.4081 0 27.9255 12.5204 27.9255 27.9255L623.0876 550.90176C623.0876 566.3099 610.5702 578.8273 595.1621 578.8273z"  horiz-adv-x="1024" />

    
    <glyph glyph-name="laba" unicode="&#58880;" d="M872.802928 140.00594 872.864326 140.00594 872.864326 140.375354ZM744.055658 703.200926c-4.814656 2.889817-9.601682 5.251607-15.442714 5.251607-14.262842 0-25.758664-11.559267-25.758664-25.805736 0-10.285251 6.088672-18.519796 14.6957-23.195282 94.679359-55.247278 158.344355-157.787676 158.344355-275.30416 0-117.424386-63.605643-219.931015-158.159136-275.18034-8.29492-4.538363-15.442714-13.050224-15.442714-23.583115 0-14.261818 11.559267-25.820062 25.791409-25.820062 5.716188 0 10.252505 2.202155 15.22475 5.063319 109.871363 64.133669 183.764304 183.143157 183.764304 319.520197C927.074995 520.214335 853.495186 638.989485 744.055658 703.200926zM773.946432 384.132006c0 79.96524-43.344181 149.739373-107.821681 187.289594-2.920516 1.52268-9.785877 4.520967-14.603603 4.520967-14.325263 0-25.914206-11.589966-25.914206-25.89988 0-9.616008 5.096065-18.176988 12.865006-22.666232 49.839105-28.307719 83.45983-81.829703 83.45983-143.244448 0-62.472843-34.801621-116.817566-86.070284-144.750755-7.457856-4.538363-12.397355-12.803607-12.397355-22.188348 0-14.325263 11.588943-25.943882 25.882484-25.943882 6.090718-0.031722 13.33061 3.542686 13.33061 3.542686C729.048873 231.828228 773.946432 302.705486 773.946432 384.132006zM541.3694 771.327536c-10.846022 5.219885-23.740704 3.790326-33.215496-3.712555-0.435928-0.358157-46.423309-36.914748-97.195669-74.296123-88.308255-65.081251-114.036219-75.925227-119.257128-77.649498l-110.6194 0c-0.63752 0-1.243317-0.062422-1.879813-0.093121l-56.504922 0c-14.231119 0-25.775037-11.543917-25.775037-25.775037l0-411.697573c0-14.261818 11.512195-25.761734 25.775037-25.761734l189.511191-0.027629c5.096065-1.865487 29.395494-13.0799 107.761306-76.999698 45.613874-37.162388 86.505189-73.485665 86.940095-73.829496 5.841032-5.218862 13.298887-7.92039 20.820188-7.92039 4.349051 0 8.729825 0.930185 12.862959 2.764973 11.277858 5.064342 18.517749 16.252149 18.517749 28.619828 0 0 0.031722 97.257068 0.031722 132.212184 0.808412 2.484587 1.213641 5.127787 1.213641 7.863085 0 2.792603-1.245364 578.026786-1.245364 578.026786C559.110459 755.107109 552.214399 766.075929 541.3694 771.327536zM508.308423 169.529347c0-1.494027-0.467651-94.617961-0.467651-94.617961-13.889335 11.745509-29.332049 24.64019-45.240367 37.507242-104.59008 84.702124-130.505309 91.816149-148.030451 91.816149-0.372483 0-0.683569-0.091074-1.025353-0.091074s-0.652869 0.091074-1.025353 0.091074L170.394297 204.234777c-18.037818 0-22.248723 5.128811-22.248723 23.246447L148.145573 543.440315c0 12.32163 1.461281 20.057825 16.298198 20.057825l128.065747 0c17.090237 0 43.315528 6.991228 157.787676 90.839915 20.383236 14.914688 40.330544 29.938869 57.544601 43.113937 0 0 0.373507-445.207781 0.467651-521.368368C507.779374 173.971519 508.308423 171.765271 508.308423 169.529347z"  horiz-adv-x="1024" />

    
    <glyph glyph-name="gouwuche" unicode="&#58924;" d="M955.423647 481.855838 852.08507 191.393443c-14.410198-40.402175-52.888558-67.575048-95.845928-67.575048L352.7843 123.818395c-48.409546 0-90.355891 34.474163-99.758028 81.935104l-68.38346 345.936847-22.624277 103.757109L86.263178 655.447455c-12.062733 0-21.815865 9.717316-21.815865 21.74014 0 12.06478 9.757225 21.775956 21.815865 21.775956l93.305059 0c0.681522 0 1.266853-0.344854 1.914606-0.38988 1.534959-0.141216 2.963495-0.417509 4.41659-0.87595 1.311879-0.417509 2.506077-0.848321 3.685949-1.502213 1.27504-0.652869 2.347464-1.416256 3.463891-2.300392 1.124614-0.88516 2.078335-1.77032 3.000334-2.845815 0.838088-1.039679 1.569752-2.152013 2.214435-3.345188 0.730641-1.294482 1.351787-2.609431 1.807159-4.025687 0.194428-0.653893 0.661056-1.161453 0.811482-1.842974l22.620184-103.833857 663.96097 0c23.387663 0 45.404096-11.373025 58.870806-30.463826 13.546527-19.09387 16.878412-43.642986 9.080819-65.701374l0 0L955.423647 481.855838zM910.746098 522.421742c-5.387707 7.647167-13.865799 12.063757-23.263843 12.063757L232.475214 534.485499l63.304791-320.290747c5.376451-27.122731 29.355585-46.796816 57.008388-46.796816L756.247328 167.397936c24.549116 0 46.561455 15.531741 54.78986 38.606273l103.334483 290.461371c3.118014 8.828063 1.842974 18.286482-3.617387 25.961278l0 0L910.746098 522.421742zM336.95273 76.585651c48.482201 0 87.895863-39.35431 87.895863-87.75874 0-48.409546-39.422871-87.790462-87.895863-87.790462-48.445362 0-87.853907 39.388079-87.853907 87.790462C249.099846 37.222131 288.504298 76.585651 336.95273 76.585651L336.95273 76.585651 336.95273 76.585651zM336.95273-55.434152c24.426319 0 44.291762 19.851117 44.291762 44.246737 0 24.376177-19.868513 44.200688-44.291762 44.200688-24.399713 0-44.246737-19.826558-44.246737-44.200688C292.705993-35.600431 312.562227-55.434152 336.95273-55.434152L336.95273-55.434152 336.95273-55.434152zM725.312782 76.585651c48.457642 0 87.862094-39.35431 87.862094-87.75874 0-48.409546-39.399335-87.790462-87.862094-87.790462-48.431036 0-87.835488 39.388079-87.835488 87.790462C637.477294 37.222131 676.890956 76.585651 725.312782 76.585651L725.312782 76.585651 725.312782 76.585651zM725.312782-55.434152c24.431435 0 44.296879 19.851117 44.296879 44.246737 0 24.376177-19.874653 44.200688-44.296879 44.200688-24.426319 0-44.274366-19.826558-44.274366-44.200688C681.033299-35.600431 700.881346-55.434152 725.312782-55.434152L725.312782-55.434152 725.312782-55.434152zM725.312782-55.434152"  horiz-adv-x="1024" />

    
    <glyph glyph-name="zan1" unicode="&#58926;" d="M868.354104 328.881658c56.047504 0 84.071767 168.143535 0 168.143535L700.206476 497.025193c168.147628 280.242635 46.413076 336.290139 0 336.290139 0-142.373615-209.370495-301.023938-420.36293-364.314403L279.843546 20.619876l-56.047504 0L223.796042 469.006046l56.047504 0 0 28.02938L167.749562 497.035426c-30.828123 0-56.047504-37.83777-56.047504-84.076884l0-336.291163c0-46.239114 25.219381-84.070744 56.047504-84.070744l112.095008 0 0 28.018124c238.850923-24.823362 155.578358-84.070744 392.338666-84.070744 56.047504 0 112.095008 28.02324 112.095008 84.070744 56.05262 0 84.076884 140.119271 56.05262 140.119271C896.378367 160.73403 932.281065 328.881658 868.354104 328.881658L868.354104 328.881658zM868.354104 328.881658"  horiz-adv-x="1024" />

    
    <glyph glyph-name="weishoucang" unicode="&#58930;" d="M728.576 854.4c-90.304 0-161.408-44.992-216.64-119.168C456.64 809.472 385.664 854.4 295.296 854.4 132.48 854.4 0 710.592 0 533.824c0-105.472 47.488-179.456 85.568-238.848 110.848-172.672 376.576-359.168 388.288-368.256 11.392-8.704 24.768-13.056 37.952-13.056 13.312 0 26.56 4.352 37.952 13.056 11.84 9.088 277.504 195.584 388.352 368.256 38.08 59.392 85.632 133.376 85.632 238.848C1023.808 710.592 891.264 854.4 728.576 854.4L728.576 854.4 728.576 854.4zM891.264 335.104c-107.776-167.936-380.032-357.76-380.032-357.76s-272.256 189.824-380.096 357.76C91.328 397.056 55.808 456 55.808 537.408c0 140.544 104.96 254.528 234.432 254.528 95.744 0 164.288-62.336 200.832-151.552L491.072 640.768l0.064 0c2.688-9.28 10.688-16.064 20.032-16.064 9.408 0 17.344 6.784 20.032 16.064l0.256 0c36.544 89.024 105.088 151.168 200.576 151.168 129.536 0 234.496-113.984 234.496-254.528C966.656 456 931.072 397.056 891.264 335.104L891.264 335.104 891.264 335.104z"  horiz-adv-x="1024" />

    
    <glyph glyph-name="yishoucang" unicode="&#58931;" d="M512.272-21.013l-59.765 59.765c-221.984 196.371-367.129 328.707-367.129 490.927 0 132.337 102.454 234.791 234.791 234.791 72.572 0 145.143-34.151 192.102-89.648 46.958 55.497 119.53 89.648 192.102 89.648 132.337 0 234.791-102.454 234.791-234.791 0-162.22-145.143-294.556-367.129-490.927l-59.765-59.765z"  horiz-adv-x="1024" />

    
    <glyph glyph-name="bofang2" unicode="&#58925;" d="M512-51.106726c-239.915162 0-435.106726 195.191564-435.106726 435.106726S272.084838 819.106726 512 819.106726s435.106726-195.191564 435.106726-435.106726S751.915162-51.106726 512-51.106726zM512 784.980487c-221.1027 0-400.980487-179.877787-400.980487-400.980487s179.877787-400.980487 400.980487-400.980487 400.980487 179.877787 400.980487 400.980487S733.1027 784.980487 512 784.980487zM452.278827 172.361859c-2.558265 0-5.526877 0.566912-7.910157 1.749854-5.840008 2.866281-9.942443 8.798387-9.942443 15.313777l0 356.673375c0 6.515391 4.102435 12.447497 9.942443 15.313777 5.840008 2.899026 13.011338 2.149966 18.160615-1.816369l230.449579-178.328501c4.174066-3.232624 6.664793-8.215102 6.664793-13.497409 0-5.282307-2.416026-10.264784-6.590092-13.497409L462.714504 175.928081C459.665051 173.57857 455.987289 172.361859 452.278827 172.361859zM468.195332 511.306454l0-287.088554 185.41899 143.552463L468.195332 511.306454z"  horiz-adv-x="1024" />

    
    <glyph glyph-name="iconset0212" unicode="&#58991;" d="M384 42.666667c12.8 0 21.333333 10.666667 21.333333 21.333333l-32 512c0 12.8-10.666667 21.333333-21.333333 21.333333-12.8 0-21.333333-10.666667-21.333333-21.333333L362.666667 64C362.666667 51.2 373.333333 42.666667 384 42.666667zM874.666667 725.333333 661.333333 725.333333 661.333333 810.666667c0 23.466667-19.2 42.666667-42.666667 42.666667L405.333333 853.333333c-23.466667 0-42.666667-19.2-42.666667-42.666667l0-85.333333L149.333333 725.333333C136.533333 725.333333 128 716.8 128 704c0-12.8 8.533333-21.333333 21.333333-21.333333l42.666667 0 42.666667-682.666667c6.4-46.933333 38.4-85.333333 85.333333-85.333333l384 0c46.933333 0 76.8 38.4 85.333333 85.333333l42.666667 682.666667 42.666667 0c12.8 0 21.333333 8.533333 21.333333 21.333333C896 716.8 887.466667 725.333333 874.666667 725.333333zM405.333333 810.666667l213.333333 0 0-85.333333L405.333333 725.333333 405.333333 810.666667zM746.666667 0c-2.133333-23.466667-19.2-42.666667-42.666667-42.666667L320-42.666667c-23.466667 0-38.4 19.2-42.666667 42.666667l-42.666667 682.666667 554.666667 0L746.666667 0zM640 42.666667c12.8 0 21.333333 8.533333 21.333333 21.333333l32 512c0 12.8-8.533333 21.333333-21.333333 21.333333-12.8 0-21.333333-8.533333-21.333333-21.333333L618.666667 64C618.666667 53.333333 627.2 42.666667 640 42.666667zM512 42.666667c12.8 0 21.333333 8.533333 21.333333 21.333333L533.333333 576c0 12.8-8.533333 21.333333-21.333333 21.333333s-21.333333-8.533333-21.333333-21.333333l0-512C490.666667 51.2 499.2 42.666667 512 42.666667z"  horiz-adv-x="1024" />

    
    <glyph glyph-name="dianzan" unicode="&#58906;" d="M884.876 472.857h-237.905c92.186 340.464-63.517 357.853-63.517 357.853-65.993 0-52.312-52.182-57.303-60.882 0-166.502-176.85-296.972-176.85-296.972v-472.172c0-46.608 63.517-63.394 88.433-63.394h357.452c33.641 0 61.036 88.224 61.036 88.224 88.434 300.706 88.434 390.177 88.434 390.177 0.001 62.128-59.781 57.164-59.781 57.164v0 0zM251.671 472.7h-142.457c-29.42 0-29.873-28.896-29.873-28.896l29.42-476.203c0-30.309 30.361-30.309 30.361-30.309h123.297c25.686 0 25.459 20.050 25.459 20.050l-0 479.247c0 36.574-36.208 36.111-36.208 36.111v0 0zM251.671 472.7z"  horiz-adv-x="1024" />

    
    <glyph glyph-name="shangyishoushangyige" unicode="&#59274;" d="M803.584 761.408c-18.176 10.048-39.936 10.112-58.112 0L192 452.992l0 282.88c0 17.664-14.336 32-32 32S128 753.536 128 735.872l0-344.896C127.744 388.8 127.104 386.752 127.104 384.512S127.744 380.16 128 377.984l0-346.112c0-17.664 14.336-32 32-32s32 14.336 32 32L192 316.032l553.408-308.352C754.56 2.56 764.48 0 774.528 0s19.968 2.56 29.056 7.616c18.176 10.112 28.992 28.224 28.992 48.576L832.576 712.896C832.576 733.12 821.76 751.232 803.584 761.408zM768.192 66.752 198.016 384.512 771.328 704 768.192 66.752z"  horiz-adv-x="1024" />

    
    <glyph glyph-name="tuijianbaobiao" unicode="&#59292;" d="M288 512l384 0C689.664 512 704 526.336 704 544S689.664 576 672 576l-384 0C270.336 576 256 561.664 256 544S270.336 512 288 512zM288 320l384 0C689.664 320 704 334.336 704 352S689.664 384 672 384l-384 0C270.336 384 256 369.664 256 352S270.336 320 288 320zM288 128l384 0c17.664 0 32 14.336 32 32S689.664 192 672 192l-384 0C270.336 192 256 177.664 256 160S270.336 128 288 128zM800 768C782.336 768 768 753.664 768 736S782.336 704 800 704 832 689.664 832 672l0-640c0-17.6-14.336-32-32-32l-640 0C142.4 0 128 14.4 128 32l0 640C128 689.664 142.4 704 160 704 177.664 704 192 718.336 192 736S177.664 768 160 768C107.072 768 64 724.928 64 672l0-640C64-20.928 107.072-64 160-64l640 0c52.928 0 96 43.072 96 96l0 640C896 724.928 852.928 768 800 768zM288 704l384 0C689.664 704 704 718.336 704 736S689.664 768 672 768L636.736 768C621.952 841.024 557.376 896 480 896S338.048 841.024 323.264 768L288 768C270.336 768 256 753.664 256 736S270.336 704 288 704zM480 832c41.664 0 76.224-26.88 89.536-64L390.464 768C403.776 805.12 438.336 832 480 832z"  horiz-adv-x="1024" />

    
    <glyph glyph-name="xiayigexiayishou" unicode="&#59301;" d="M832 735.872c0 17.664-14.336 32-32 32S768 753.536 768 735.872l0-282.88L214.592 761.408c-18.176 10.112-39.936 10.048-58.112 0C138.24 751.232 127.424 733.12 127.424 712.832l0-656.64c0-20.224 10.816-38.464 29.056-48.576C165.568 2.56 175.488 0 185.472 0s19.968 2.56 29.056 7.616L768 316.032l0-284.096c0-17.664 14.336-32 32-32s32 14.336 32 32L832 735.872zM191.808 66.752 188.672 704l573.312-319.488L191.808 66.752z"  horiz-adv-x="1024" />

    
    <glyph glyph-name="leimupinleifenleileibie2" unicode="&#59384;" d="M320 832 192 832C121.6 832 64 774.4 64 704l0-128c0-70.4 57.6-128 128-128l128 0c70.4 0 128 57.6 128 128L448 704C448 774.4 390.4 832 320 832zM768 832l-128 0C569.6 832 512 774.4 512 704l0-128c0-70.4 57.6-128 128-128l128 0c70.4 0 128 57.6 128 128L896 704C896 774.4 838.4 832 768 832zM320 384 192 384c-70.4 0-128-57.6-128-128l0-128c0-70.4 57.6-128 128-128l128 0c70.4 0 128 57.6 128 128l0 128C448 326.4 390.4 384 320 384zM768 384l-128 0c-70.4 0-128-57.6-128-128l0-128c0-70.4 57.6-128 128-128l128 0c70.4 0 128 57.6 128 128l0 128C896 326.4 838.4 384 768 384z"  horiz-adv-x="1024" />

    
    <glyph glyph-name="zan2" unicode="&#58956;" d="M128.53084 496.403023c0 41.382503 33.624818 74.93569 74.934666 74.93569 41.382503 0 74.93569-33.571606 74.93569-74.93569l0-487.077378c0-41.383526-33.624818-74.93569-74.93569-74.93569-41.381479 0-74.934666 33.571606-74.934666 74.93569L128.53084 496.403023zM390.802172 665.006022l-0.420579 0c0.275269-3.083222 0.420579-6.210445 0.420579-9.366322 0-47.164183-31.686676-86.926792-74.93569-99.157347l0-41.345664c0-0.01842 0-0.026606 0-0.045025l0-505.766019c0-41.364083 33.589003-74.93569 75.008344-74.93569l274.456862 0c82.71077 0 161.140027 66.145489 175.153182 147.729599l52.286854 304.560484c17.507746 102.038978-52.084239 184.65765-155.449421 184.65765L555.912627 571.337689c13.483082 10.236132 22.228257 26.41665 22.228257 44.620243L578.140884 739.794355c0 51.948139-41.932018 93.815689-93.669356 93.815689-51.626821 0-93.668333-42.004673-93.668333-93.815689L390.803195 665.006022z"  horiz-adv-x="1024" />

    
    <glyph glyph-name="xin1" unicode="&#58933;" d="M700.856275 740.457458c-74.768891 0-144.295384-72.696696-190.046381-127.260405C465.073224 667.773042 395.563104 740.457458 320.754305 740.457458c-134.789892 0-244.443291-105.780185-244.443291-235.799424 0-77.56968 39.277562-131.98808 70.844511-175.712931 91.752704-126.998439 322.464249-285.038872 332.234777-291.701618 9.410324-6.414083 20.424168-9.629311 31.401174-9.629311 11.005658 0 21.998013 3.215228 31.397081 9.629311 9.782807 6.662747 240.514819 164.703179 332.23887 291.701618 31.586392 43.723827 70.873164 98.143251 70.873164 175.712931C945.299567 634.678296 835.645145 740.457458 700.856275 740.457458L700.856275 740.457458zM700.856275 740.457458"  horiz-adv-x="1024" />

    
    <glyph glyph-name="jushoucanggift" unicode="&#59012;" d="M892.543016 671.849894c-9.284457 11.914354-17.804505 21.814842-26.454512 30.930453C759.437485 815.172113 642.682341 803.996586 536.033369 719.200318c-9.493212-7.547907-18.453281-15.383362-26.88737-23.346731-8.43409 7.963369-17.395182 15.798824-26.888394 23.346731C375.608633 803.996586 258.853489 815.172113 152.202471 702.78137c-8.650007-9.115612-17.170055-19.016099-25.559119-29.714765C-2.680039 485.865016 68.411089 300.102195 259.728416 131.969916c42.320874-37.192064 87.560218-70.64906 132.799562-99.905384 15.841803-10.245342 30.570249-19.244296 43.816948-26.932396 8.024767-4.657067 13.827937-7.872295 17.044188-9.578146 4.869914-2.916423 9.728572-5.142114 14.530948-6.771217 3.470031-1.619894 7.516184-3.091408 12.218276-4.387937 25.377994-6.998391 62.97938-1.908466 85.839017 11.764951 2.14178 1.101077 7.944949 4.315282 15.969717 8.972349 13.246699 7.688099 27.974122 16.687054 43.816948 26.932396 45.239344 29.256324 90.478687 62.71332 132.799562 99.905384C949.879885 300.102195 1020.971014 485.865016 892.543016 671.849894z"  horiz-adv-x="1024" />

    
    <glyph glyph-name="zan3" unicode="&#58959;" d="M926.019966 407.711028c0 52.202942-31.507598 95.928816-74.091462 108.385523-0.300852 0.119727-1.38044 0.239454-3.176342 0.239454L631.557468 516.336004c-0.835018 0-1.315972 4.223185-1.137916 4.971222 31.507598 101.139491 15.996322 195.960067 15.396665 199.075011-0.062422 0.060375-0.062422 0.149403-0.062422 0.209778 0 61.875233-44.203758 111.981421-98.713232 111.981421-50.554396 0-92.064812-42.977837-98.054223-98.444103l-0.060375 0c-19.946284-187.691753-147.232273-243.698325-175.863357-254.061346-0.179079-0.059352-0.35918 0-0.536212 0-1.677199 0.329505-3.414773 0-5.211698 0L133.737422 480.067986c-19.766183 0-35.759435-17.908882-35.759435-40.281425l0-13.807471 0-451.668936c0-22.460548 15.993253-38.726 35.759435-38.726l145.734152 0 469.787596 0c3.475148-0.36225 7.009647 0 10.544147 0 65.109903 0 87.630826 60.918441 87.630826 60.918441 7.129374 15.45397 74.215282 378.620223 74.215282 378.620223s0 0 0.060375 0c1.257643 4.852518 2.217505 9.945513 2.87856 15.035438l0.297782 1.6465 0 0.11768C925.544129 397.077853 926.019966 402.380626 926.019966 407.711028M225.382679 20.252509c0-12.038174-9.763364-21.803585-21.803585-21.803585-11.979846 0-21.802562 9.765411-21.802562 21.803585L181.776532 395.31265c0 12.007475 9.822716 21.770839 21.802562 21.770839 12.040221 0 21.803585-9.763364 21.803585-21.770839L225.382679 20.252509z"  horiz-adv-x="1024" />

    
    <glyph glyph-name="sanjiaoxing" unicode="&#58912;" d="M93.37191 838.845427 930.62809 355.364392 93.37191-128Z"  horiz-adv-x="1024" />

    
    <glyph glyph-name="youjiantou" unicode="&#58928;" d="M702.6312 375.901555 356.711749 725.54277 321.103764 690.069861 634.023636 378.277672 321.63179 82.645534 357.135398 47.270862 669.533384 342.903 669.455613 342.891743Z"  horiz-adv-x="1024" />

    
    <glyph glyph-name="duihao" unicode="&#58936;" d="M416.832 97.92C400.64 97.92 384.512 104.128 372.16 116.48L119.424 370.24C94.784 395.008 94.784 435.2 119.424 459.968 144.128 484.736 184.128 484.736 208.768 459.968L416.832 251.072 814.4 650.24C839.04 675.072 879.04 675.072 903.744 650.24 928.384 625.472 928.384 585.344 903.744 560.576L461.504 116.48C449.152 104.128 432.96 97.92 416.832 97.92Z"  horiz-adv-x="1024" />

    
    <glyph glyph-name="bofang3" unicode="&#58980;" d="M909.892465 564.218269c-21.798121 51.476314-52.909055 97.631021-92.514092 137.236058-39.605037 39.605037-85.862083 70.818309-137.236058 92.514092-53.21607 22.514491-109.809314 33.976414-168.142315 33.976414S397.176094 816.585249 343.857685 793.968419c-51.476314-21.798121-97.631021-52.909055-137.236058-92.514092s-70.818309-85.862083-92.514092-137.236058c-22.514491-53.21607-33.976414-109.809314-33.976414-168.142315s11.461923-114.823906 33.976414-168.142315c21.798121-51.476314 52.909055-97.631021 92.514092-137.236058 39.605037-39.605037 85.862083-70.818309 137.236058-92.514092 53.21607-22.514491 109.809314-33.976414 168.142315-33.976414s114.823906 11.461923 168.142315 33.976414c51.476314 21.798121 97.631021 52.909055 137.236058 92.514092 39.605037 39.605037 70.818309 85.862083 92.514092 137.236058 22.514491 53.21607 33.976414 109.809314 33.976414 168.142315S932.509294 510.89986 909.892465 564.218269zM512 9.236058c-213.273636 0-386.839896 173.56626-386.839896 386.839896s173.56626 386.839896 386.839896 386.839896 386.839896-173.56626 386.839896-386.839896S725.273636 9.236058 512 9.236058zM641.355986 399.760144 458.681591 528.195083c-8.391765 5.8333-19.649011-0.102339-19.649011-10.336198l0-256.869878c0-10.23386 11.257246-16.169498 19.649011-10.336198l182.776734 128.434939C648.622027 384.102339 648.519688 394.745553 641.355986 399.760144z"  horiz-adv-x="1024" />

    
    <glyph glyph-name="sanjiao" unicode="&#58897;" d="M113.777778-128 113.777778 896 910.222222 384 113.777778-128Z"  horiz-adv-x="1024" />

    
    <glyph glyph-name="duihao1" unicode="&#58917;" d="M414.245926 144.971852l437.57037 453.12c7.300741 7.49037 7.111111 19.531852-0.474074 26.832593-7.49037 7.300741-19.531852 7.111111-26.832593-0.474074L398.506667 183.277037 199.111111 382.672593c-7.395556 7.395556-19.437037 7.395556-26.832593 0l0 0c-7.395556-7.395556-7.395556-19.437037 0-26.832593l212.574815-212.574815c6.731852-6.731852 17.161481-7.300741 24.557037-1.896296C411.211852 142.317037 412.823704 143.454815 414.245926 144.971852z"  horiz-adv-x="1024" />

    
    <glyph glyph-name="zanting" unicode="&#59242;" d="M757.52 822.893h-62.493c-34.526 0-62.498-27.984-62.498-62.511v-749.948c0-34.526 27.974-62.493 62.498-62.493h62.493c34.516 0 62.502 27.968 62.502 62.493v749.953c-0.001 34.524-27.984 62.509-62.502 62.509zM320.054 822.893h-62.502c-34.526 0-62.498-27.984-62.498-62.511v-749.948c0-34.526 27.974-62.493 62.498-62.493h62.502c34.505 0 62.493 27.968 62.493 62.493v749.953c-0.001 34.524-27.984 62.509-62.493 62.509z"  horiz-adv-x="1024" />

    
    <glyph glyph-name="wo" unicode="&#58893;" d="M372.90833 322.482227c-169.341448 111.108579-166.972428 309.963004-68.768101 421.613951 102.348833 116.358287 279.887193 127.374487 393.027092 22.006816 67.9699-63.303493 98.09176-142.622176 87.633278-234.845111-10.299865-90.780033-58.498936-159.3537-130.823125-205.234917 48.142787-30.295828 99.120212-56.329466 142.995693-91.271234 86.031759-68.517384 134.614581-160.776136 152.221056-269.300794 2.865338-17.662759-2.890921-31.80013-20.686714-35.397152-22.656633-4.58454-29.272493 12.377235-32.470414 30.341878-16.219857 91.127967-57.572818 168.686514-126.320452 230.746655-188.989477 170.6155-468.52362 125.859951-592.935552-96.771658-22.820367-40.836176-34.404517-88.175646-49.150772-133.176795-5.725558-17.473442-9.987748-35.136201-32.086664-31.150312-21.126748 3.806806-23.572518 20.502513-20.15458 39.848658 28.924559 163.748923 123.475581 274.468635 273.803468 340.422565 6.994494 3.070004 14.203887 5.648808 21.275131 8.549963C371.035627 319.100105 371.311927 320.06204 372.90833 322.482227zM509.948214 342.293989c125.547834-0.450267 230.900155 100.629631 230.741538 221.383141-0.158617 121.091211-107.787858 228.909769-228.781852 229.180952C391.205556 793.134383 284.405217 686.932694 282.128297 564.367881 279.943477 446.725309 386.621016 342.73914 509.948214 342.293989z"  horiz-adv-x="1024" />

    
    <glyph glyph-name="jiahao" unicode="&#58929;" d="M851.968 392.192 532.48 392.192 532.48 707.584c0 12.288-8.192 20.48-20.48 20.48S491.52 719.872 491.52 707.584l0-319.488L172.032 388.096c-12.288 0-20.48-8.192-20.48-20.48s8.192-20.48 20.48-20.48L491.52 347.136l0-319.488c0-12.288 8.192-20.48 20.48-20.48s20.48 8.192 20.48 20.48l0 319.488 319.488 0c12.288 0 20.48 8.192 20.48 20.48S864.256 392.192 851.968 392.192z"  horiz-adv-x="1024" />

    
    <glyph glyph-name="bofang5" unicode="&#58938;" d="M909.892465 564.218269c-21.798121 51.476314-52.909055 97.631021-92.514092 137.236058-39.605037 39.605037-85.862083 70.818309-137.236058 92.514092-53.21607 22.514491-109.809314 33.976414-168.142315 33.976414S397.176094 816.585249 343.857685 793.968419c-51.476314-21.798121-97.631021-52.909055-137.236058-92.514092s-70.818309-85.862083-92.514092-137.236058c-22.514491-53.21607-33.976414-109.809314-33.976414-168.142315s11.461923-114.823906 33.976414-168.142315c21.798121-51.476314 52.909055-97.631021 92.514092-137.236058 39.605037-39.605037 85.862083-70.818309 137.236058-92.514092 53.21607-22.514491 109.809314-33.976414 168.142315-33.976414s114.823906 11.461923 168.142315 33.976414c51.476314 21.798121 97.631021 52.909055 137.236058 92.514092 39.605037 39.605037 70.818309 85.862083 92.514092 137.236058 22.514491 53.21607 33.976414 109.809314 33.976414 168.142315S932.509294 510.89986 909.892465 564.218269zM512 9.236058c-213.273636 0-386.839896 173.56626-386.839896 386.839896s173.56626 386.839896 386.839896 386.839896 386.839896-173.56626 386.839896-386.839896S725.273636 9.236058 512 9.236058zM641.355986 399.760144 458.681591 528.195083c-8.391765 5.8333-19.649011-0.102339-19.649011-10.336198l0-256.869878c0-10.23386 11.257246-16.169498 19.649011-10.336198l182.776734 128.434939C648.622027 384.102339 648.519688 394.745553 641.355986 399.760144z"  horiz-adv-x="1024" />

    
    <glyph glyph-name="paixingbang" unicode="&#59077;" d="M315.597609 1.780289c-62.13867 0-124.393261 0-188.573147 0 0 126.355131 0 252.968887 0 382.249435 63.490354 0 125.046818 0 188.573147 0C315.597609 256.581933 315.597609 130.025938 315.597609 1.780289zM603.685685 2.232982c-60.901509 0-122.853905 0-186.300688 0 0 254.759673 0 508.683912 0 766.051617 62.799822 0 123.42252 0 186.300688 0C603.685685 513.576891 603.685685 258.975311 603.685685 2.232982zM895.189246 1.507474c-62.46245 0-124.032506 0-187.932981 0 0 174.161518 0 348.696784 0 525.524295 61.721953 0 123.860622 0 187.932981 0C895.189246 352.129752 895.189246 177.537725 895.189246 1.507474z"  horiz-adv-x="1024" />

    
    <glyph glyph-name="fenxiang-1" unicode="&#58891;" d="M802.102929 218.307662c-53.570061 0-100.865316-25.20218-132.398897-63.762558L380.342857 322.717382c7.456074 19.251289 11.957173 39.951166 11.957173 61.774512 0 21.934729-4.501099 42.738765-12.064342 62.043638l287.05403 167.364898c31.476987-38.448994 78.721667-63.544005 132.19058-63.544005 94.703097 0 171.705243 77.003952 171.705243 171.707049 0 94.646502-77.058741 171.654067-171.705243 171.654067-94.652523 0-171.604095-77.007565-171.604095-171.654067 0-21.934729 4.505313-42.739969 12.012564-62.045445l-287.054632-167.364295c-31.477589 38.448392-78.721065 63.548219-132.189978 63.548219-94.69828 0-171.705845-77.007565-171.705845-171.654669 0-94.652523 77.058741-171.654067 171.705845-171.654066 53.518885 0 100.82016 25.151004 132.348323 63.705962l289.361777-168.222851c-7.451257-19.249483-11.956571-39.95237-11.956571-61.778727 0-94.69828 77.059343-171.706447 171.654668-171.706447 94.595928 0 171.655271 77.058741 171.655271 171.706447 0 94.650716-77.008769 171.710059-171.604696 171.71006z m-2.572057 621.784427c65.102772 0 118.08521-52.926445 118.08521-118.028013 0-65.103374-52.982438-118.085812-118.08521-118.085812-65.046177 0-117.97202 52.982438-117.97202 118.085812 0 65.101568 52.925843 118.028013 117.97202 118.028013z m-578.886715-573.628208c-65.096752 0-118.079189 52.929455-118.079189 118.028013 0 65.103374 52.982438 118.028013 118.079189 118.028013 65.051596 0 118.034636-52.924639 118.034636-118.028013 0-65.098558-52.931863-118.028013-118.034636-118.028013z m581.458772-338.002063c-65.097354 0-118.028013 52.981835-118.028013 118.083404 0 65.103976 52.930659 118.08521 118.028013 118.08521 65.103374 0 118.034034-52.981233 118.034033-118.08521 0-65.101568-52.930659-118.083404-118.034033-118.083404z m0 0"  horiz-adv-x="1024" />

    
    <glyph glyph-name="zhankai2" unicode="&#58901;" d="M868.352 717.824H155.648c-11.605333 0-20.48 8.874667-20.48 20.48s8.874667 20.48 20.48 20.48h712.704c11.605333 0 20.48-8.874667 20.48-20.48s-8.874667-20.48-20.48-20.48zM868.352 481.621333H512c-11.605333 0-20.48 8.874667-20.48 20.48s8.874667 20.48 20.48 20.48h356.352c11.605333 0 20.48-8.874667 20.48-20.48s-8.874667-20.48-20.48-20.48zM868.352 245.418667H512c-11.605333 0-20.48 8.874667-20.48 20.48s8.874667 20.48 20.48 20.48h356.352c11.605333 0 20.48-8.874667 20.48-20.48s-8.874667-20.48-20.48-20.48zM868.352 9.216H155.648c-11.605333 0-20.48 8.874667-20.48 20.48s8.874667 20.48 20.48 20.48h712.704c11.605333 0 20.48-8.874667 20.48-20.48s-8.874667-20.48-20.48-20.48zM360.448 384l-102.4 59.392-102.4 58.709333v-236.202666l102.4 58.709333z"  horiz-adv-x="1024" />

    
    <glyph glyph-name="left" unicode="&#58977;" d="M514.401103 58.827034a21.53931 21.53931 0 0 0-13.806344 4.978759L113.310897 384l21.186206 17.513931a22.104276 22.104276 0 0 0 7.379863 6.10869l358.753103 296.571586a21.680552 21.680552 0 1 0 27.577379-33.438897l-315.533241-260.837517h676.334345a21.645241 21.645241 0 0 0 0-43.325793H202.363586l325.843862-269.382621a21.645241 21.645241 0 0 0-13.806345-38.382345z"  horiz-adv-x="1024" />

    
    <glyph glyph-name="nv1" unicode="&#59028;" d="M816.985 687.286c-64.686 64.686-150.611 100.246-241.998 100.246s-177.311-35.559-241.998-100.246-100.246-150.611-100.246-241.998c0-81.678 28.399-158.864 80.464-220.516l-58.497-58.497-98.304 98.304c-10.923 10.923-29.006 10.559-40.414-0.85s-11.773-29.491-0.85-40.414l98.304-98.304-88.595-88.716c-11.408-11.408-11.408-29.855 0-41.142 11.408-11.408 29.855-11.408 41.142 0l88.837 88.837 98.304-98.304c10.923-10.923 29.006-10.559 40.414 0.85s11.773 29.491 0.85 40.414l-98.304 98.304 58.497 58.497c61.652-52.065 138.839-80.464 220.516-80.464 91.387 0 177.311 35.559 241.998 100.246 64.686 64.686 100.246 150.611 100.246 241.998-0.122 91.265-35.681 177.189-100.367 241.755zM574.988 161.299c-156.558 0-283.989 127.431-283.989 283.989s127.431 283.989 283.989 283.989 283.989-127.431 283.989-283.989-127.431-283.989-283.989-283.989z"  horiz-adv-x="1024" />

    
    <glyph glyph-name="yishoucang1" unicode="&#59035;" d="M514.548 19.183c-5.461 0-10.801 1.456-15.655 4.491-0.242 0.122-0.485 0.364-0.85 0.485-73.424 46.967-141.753 102.431-202.798 164.811-61.167 62.501-115.173 131.922-160.563 206.438-24.515 37.259-37.379 80.464-37.379 125.125 0 125.853 102.309 228.162 228.162 228.162 49.394 0 96.483-15.534 135.926-44.905 20.995-15.655 38.836-34.346 53.157-55.463 14.321 21.117 32.161 39.807 53.157 55.463 39.564 29.37 86.531 44.905 135.926 44.905 125.853 0 228.162-102.309 228.162-228.162 0-44.661-12.986-87.988-37.379-125.125-45.39-74.516-99.396-143.937-160.563-206.438-61.167-62.501-129.494-117.965-203.040-164.932-0.242-0.122-0.364-0.242-0.607-0.364-2.306-1.334-4.611-2.427-7.161-3.155-2.791-0.971-5.583-1.334-8.496-1.334z"  horiz-adv-x="1024" />

    
    <glyph glyph-name="shoucang" unicode="&#58904;" d="M437.78048 752.64H297.90208a20.48 20.48 0 0 1 0-40.96h139.8784c39.07584 0 70.8608-32.11264 70.8608-71.68v-5.3248a20.48 20.48 0 0 1 20.48-20.48h362.82368c39.03488 0 70.61504-31.9488 70.61504-71.92576V445.44a20.48 20.48 0 1 1 40.96 0V542.26944c0 62.50496-49.80736 112.88576-111.57504 112.88576h-343.32672a112.18944 112.18944 0 0 1-110.83776 97.4848zM962.56 363.52v-282.54208c0-36.12672-31.21152-65.61792-70.8608-65.61792H383.54944a20.48 20.48 0 1 1 0-40.96H891.6992c61.76768 0 111.8208 47.3088 111.8208 106.57792V363.52a20.48 20.48 0 1 1-40.96 0zM297.90208 15.36H132.99712c-39.07584 0-71.55712 36.16768-71.55712 82.1248V240.64a20.48 20.48 0 1 1-40.96 0v-143.1552c0-67.62496 49.80736-123.0848 112.51712-123.0848h164.90496a20.48 20.48 0 1 1 0 40.96zM61.44 281.6V647.04512c0 35.06176 32.52224 64.63488 72.82688 64.63488h120.832a20.48 20.48 0 0 1 0 40.96h-120.832C72.17152 752.64 20.48 705.65888 20.48 647.04512V281.6a20.48 20.48 0 1 1 40.96 0zM327.68 547.84v-245.76a20.48 20.48 0 1 1 40.96 0v245.76a20.48 20.48 0 0 1-40.96 0zM225.28 404.48h245.76a20.48 20.48 0 1 1 0 40.96h-245.76a20.48 20.48 0 1 1 0-40.96z"  horiz-adv-x="1024" />

    
    <glyph glyph-name="jiazailoading-B" unicode="&#59645;" d="M270.4 681.6C336 736 420 768 512 768c212 0 384-172 384-384h64c0 247.2-200.8 448-448 448-107.2 0-205.6-37.6-282.4-100l40.8-50.4z"  horiz-adv-x="1024" />

    
    <glyph glyph-name="touting" unicode="&#59332;" d="M221.248 369.92c16.576 0 30.656-14.016 30.656-30.656v-244.608c0-16.64-14.016-30.656-30.656-30.656A125.44 125.44 0 0 0 96 189.248v55.36A125.44 125.44 0 0 0 221.248 369.92m0 64A189.824 189.824 0 0 1 32 244.608v-55.36A189.824 189.824 0 0 1 221.248 0c52.032 0 94.656 42.56 94.656 94.656V339.264c0 52.032-42.56 94.656-94.656 94.656zM802.752 369.92a125.44 125.44 0 0 0 125.248-125.248v-55.36a125.44 125.44 0 0 0-125.248-125.248 31.104 31.104 0 0 0-30.656 30.656V339.264c0 16.576 14.016 30.656 30.656 30.656m0 64c-52.032 0-94.656-42.56-94.656-94.656v-244.608c0-52.032 42.56-94.656 94.656-94.656a189.76 189.76 0 0 1 189.248 189.248v55.36a189.824 189.824 0 0 1-189.248 189.312zM850.048 386.688a32 32 0 0 0-32 32v35.776c0 155.264-126.72 281.536-282.624 281.536h-46.912c-155.84 0-282.56-126.272-282.56-281.536v-35.712a32 32 0 0 0-64 0v35.712c0 190.528 155.456 345.536 346.56 345.536h46.912c191.104 0 346.624-155.008 346.624-345.536v-35.776a32 32 0 0 0-32-32z"  horiz-adv-x="1024" />

    
    <glyph glyph-name="zan" unicode="&#59504;" d="M757.76 43.093333c36.906667 0.021333 72.832 30.208 79.296 66.56l51.093333 287.04c10.069333 56.469333-27.093333 100.522667-84.373333 100.096l-10.261333-0.085333a19972.266667 19972.266667 0 0 0-52.842667-0.362667 3552.853333 3552.853333 0 0 0-56.746667 0l-30.997333 0.426667 11.498667 28.8c10.24 25.642667 21.76 95.744 21.504 128.021333-0.618667 73.045333-31.36 114.858667-69.290667 114.410667-46.613333-0.554667-69.461333-23.466667-69.333333-91.136 0.213333-112.661333-102.144-226.112-225.130667-225.109333a1214.08 1214.08 0 0 1-20.629333 0l-3.52-0.042667c-0.192 0 0.64-409.109333 0.64-409.109333 0 0.085333 459.093333 0.490667 459.093333 0.490666z m-17.301333 495.914667a15332.288 15332.288 0 0 1 52.693333 0.362667l10.282667 0.085333c84.010667 0.618667 141.44-67.52 126.72-150.250667L879.061333 102.186667c-10.090667-56.661333-63.68-101.696-121.258666-101.76l-458.922667-0.384A42.666667 42.666667 0 0 0 256 42.453333l-0.853333 409.173334a42.624 42.624 0 0 0 42.346666 42.730666l3.669334 0.042667c5.909333 0.064 13.12 0.064 21.333333 0 98.176-0.789333 182.293333 92.437333 182.144 182.378667C504.469333 767.978667 546.24 809.813333 616.106667 810.666667c65.173333 0.768 111.68-62.506667 112.448-156.714667 0.256-28.48-6.848-78.826667-15.701334-115.050667 8.021333 0 17.28 0.042667 27.584 0.106667zM170.666667 448v-405.333333h23.466666a21.333333 21.333333 0 0 0 0-42.666667H154.837333A26.709333 26.709333 0 0 0 128 26.666667v437.333333c0 14.784 12.074667 26.666667 26.773333 26.666667h38.912a21.333333 21.333333 0 0 0 0-42.666667H170.666667z"  horiz-adv-x="1024" />

    
    <glyph glyph-name="zhiding" unicode="&#58976;" d="M278.1 420.7l215.7 215.7c11.3 11.3 29.6 11.3 40.9 0l215.7-215.7c7.3-7.3 7.3-19 0-26.3-7.3-7.3-19-7.3-26.3 0L532.9 585.8v-446.6c0-10.3-8.3-18.6-18.6-18.6s-18.6 8.3-18.6 18.6V585.8L304.4 394.4c-7.3-7.3-19-7.3-26.3 0-7.2 7.3-7.2 19.1 0 26.3z m-174.2-36.3c0-225.4 183.4-408.8 408.8-408.8S921.5 159 921.5 384.4 738.1 793.2 512.7 793.2 103.9 609.8 103.9 384.4m-37.1 0c0 245.9 200.1 446 446 446s446-200.1 446-446-200.1-446-446-446-446 200-446 446"  horiz-adv-x="1024" />

    
    <glyph glyph-name="menpiao" unicode="&#58896;" d="M971.85792 29.7472H327.24992c0 29.64992-24.06912 53.71392-53.71904 53.71392-29.68064 0-53.71904-24.064-53.71904-53.71392H112.37376c-29.68064 0-53.71904 24.03328-53.71904 53.71392V674.3296c0 29.67552 24.0384 53.71392 53.71904 53.71392h107.43808c0-29.64992 24.0384-53.68832 53.71904-53.68832 29.64992 0 53.71904 24.0384 53.71904 53.68832h644.61312c29.64992 0 53.71392-24.0384 53.71392-53.71392v-590.86848c0-29.68064-24.06912-53.71392-53.71904-53.71392z m0 644.608H366.05952c-18.61632-31.98976-52.85888-53.71904-92.52864-53.71904S199.61344 642.36544 181.00224 674.3552H112.37888v-590.89408h68.62336c18.61632 31.96416 52.85888 53.71904 92.52864 53.71904s73.91744-21.75488 92.52864-53.71904h605.7984V674.3552zM501.82656 486.34368h349.16864a13.43488 13.43488 0 0 0 13.42976-13.42976v-26.85952a13.43488 13.43488 0 0 0-13.42976-13.42976H501.82656a13.43488 13.43488 0 0 0-13.42976 13.42976v26.85952a13.44 13.44 0 0 0 13.42976 13.42976z m0-161.152h349.16864a13.43488 13.43488 0 0 0 13.42976-13.42976v-26.88a13.4144 13.4144 0 0 0-13.42976-13.40416H501.82656a13.4144 13.4144 0 0 0-13.42976 13.40416v26.88a13.44 13.44 0 0 0 13.42976 13.42976z m-214.86592-134.29248h-26.85952a13.42976 13.42976 0 0 0-13.42976 13.42464v134.29248a13.43488 13.43488 0 0 0 13.42976 13.42976h26.85952a13.43488 13.43488 0 0 0 13.42976-13.42976v-134.29248a13.42976 13.42976 0 0 0-13.42976-13.42464z m0 214.84032h-26.85952a13.43488 13.43488 0 0 0-13.42976 13.42976V553.49248a13.43488 13.43488 0 0 0 13.42976 13.42976h26.85952a13.43488 13.43488 0 0 0 13.42976-13.42976V419.1744a13.43488 13.43488 0 0 0-13.42976-13.43488z"  horiz-adv-x="1084" />

    
    <glyph glyph-name="bofangshu" unicode="&#58981;" d="M800 768H224C134.4 768 64 697.6 64 608v-448c0-89.6 70.4-160 160-160h576c89.6 0 160 70.4 160 160V608c0 89.6-70.4 160-160 160z m96-608c0-54.4-41.6-96-96-96H224c-54.4 0-96 41.6-96 96V608c0 54.4 41.6 96 96 96h576c54.4 0 96-41.6 96-96v-448zM684.8 412.8l-256 112c-22.4 9.6-44.8-6.4-44.8-28.8v-224c0-22.4 22.4-38.4 44.8-28.8l256 112c25.6 9.6 25.6 48 0 57.6z"  horiz-adv-x="1024" />

    
    <glyph glyph-name="suijibofang" unicode="&#58987;" d="M844.8 230.4c-6.4 6.4-16 12.8-25.6 9.6-19.2 0-35.2-16-35.2-35.2 0-9.6 6.4-19.2 12.8-25.6l41.6-41.6c-44.8 6.4-86.4 22.4-121.6 51.2-3.2 0-3.2 3.2-6.4 6.4L332.8 592C268.8 662.4 192 700.8 99.2 700.8c-19.2 0-35.2-16-35.2-35.2s16-32 35.2-32c73.6 0 134.4-32 182.4-86.4l384-400 6.4-6.4c48-38.4 108.8-64 172.8-70.4l-48-44.8c-9.6-6.4-16-19.2-16-28.8 0-19.2 19.2-35.2 38.4-32 9.6 0 19.2 6.4 25.6 12.8l99.2 92.8c16 16 16 41.6 0 57.6l-99.2 102.4z m-3.2 556.8c-12.8 16-32 19.2-48 6.4-9.6-6.4-12.8-16-12.8-25.6 0-12.8 3.2-22.4 16-28.8l41.6-41.6c-73.6-9.6-140.8-38.4-192-89.6l-115.2-118.4c-12.8-12.8-12.8-32 0-44.8 6.4-6.4 16-9.6 25.6-9.6s19.2 3.2 25.6 9.6l112 118.4c41.6 38.4 92.8 64 147.2 70.4l-44.8-44.8c-6.4-6.4-12.8-16-12.8-25.6 0-19.2 16-35.2 32-35.2 9.6 0 19.2 3.2 28.8 9.6L950.4 640c12.8 12.8 12.8 35.2 0 48l-108.8 99.2m-438.4-448c-9.6 0-19.2-3.2-25.6-9.6l-118.4-121.6c-48-44.8-96-67.2-160-67.2H96c-19.2 0-35.2-16-35.2-35.2s16-32 35.2-32h3.2c83.2 0 147.2 32 211.2 86.4l121.6 124.8c6.4 6.4 9.6 12.8 9.6 22.4 0 9.6-3.2 16-9.6 22.4-9.6 6.4-19.2 9.6-28.8 9.6z"  horiz-adv-x="1024" />

    
    <glyph glyph-name="xunhuanbofang" unicode="&#58988;" d="M694.4 41.6H195.2l48-44.8c9.6-6.4 16-16 16-28.8-3.2-19.2-19.2-32-38.4-32-9.6 0-22.4 6.4-28.8 12.8l-108.8 96c-12.8 12.8-16 35.2 0 48L192 192c6.4 6.4 19.2 9.6 28.8 9.6 19.2 0 35.2-16 35.2-35.2 0-9.6-6.4-19.2-12.8-25.6l-41.6-38.4h496c112 0 198.4 89.6 198.4 198.4v86.4c0 19.2 12.8 32 32 32s32-12.8 32-32v-86.4c0-140.8-118.4-259.2-265.6-259.2zM329.6 726.4h496l-48 44.8c-9.6 6.4-16 16-16 28.8 3.2 19.2 19.2 32 38.4 32 9.6 0 22.4-6.4 28.8-12.8l108.8-96c12.8-12.8 16-35.2 0-48L832 576c-6.4-6.4-19.2-9.6-28.8-9.6-19.2 0-35.2 16-35.2 35.2 0 9.6 6.4 19.2 12.8 25.6l41.6 38.4H326.4C217.6 662.4 128 572.8 128 460.8v-89.6c0-19.2-12.8-32-32-32s-32 12.8-32 32v86.4C64 608 182.4 726.4 329.6 726.4z"  horiz-adv-x="1024" />

    
    <glyph glyph-name="danquxunhuan" unicode="&#58989;" d="M928 419.2c-19.2 0-32-12.8-32-32v-86.4c0-108.8-86.4-198.4-198.4-198.4H201.6l41.6 38.4c6.4 6.4 12.8 16 12.8 25.6 0 19.2-16 35.2-35.2 35.2-9.6 0-22.4-3.2-28.8-9.6l-108.8-99.2c-16-12.8-12.8-35.2 0-48l108.8-96c6.4-6.4 19.2-12.8 28.8-12.8 19.2 0 35.2 12.8 38.4 32 0 12.8-6.4 22.4-16 28.8l-48 44.8h499.2c147.2 0 265.6 118.4 265.6 259.2v86.4c0 19.2-12.8 32-32 32zM96 339.2c19.2 0 32 12.8 32 32v89.6c0 112 89.6 201.6 198.4 204.8h496l-41.6-38.4c-6.4-6.4-12.8-16-12.8-25.6 0-19.2 16-35.2 35.2-35.2 9.6 0 22.4 3.2 28.8 9.6l105.6 99.2c16 12.8 12.8 35.2 0 48l-108.8 96c-6.4 6.4-19.2 12.8-28.8 12.8-19.2 0-35.2-12.8-38.4-32 0-12.8 6.4-22.4 16-28.8l48-44.8H329.6C182.4 726.4 64 608 64 457.6v-86.4c0-19.2 12.8-32 32-32zM544 224V544h-48L416 486.4l16-41.6 60.8 41.6V224z"  horiz-adv-x="1024" />

    
    <glyph glyph-name="medal" unicode="&#59275;" d="M792.1 305.5l-2.4-2.1 3.1-69.3 78.6-78.6-81.8-45.4-6.9-12.5-38.5-69.3-112.2 112.1 165.4-7.4-7.6 170.3 125.8 115.1-125.8 115.1 7.6 170.3-170.3-7.6-115.1 125.8-115.1-125.8-170.3 7.6 7.6-170.3-125.8-115.1 125.8-115.1-7.6-170.3 165.4 7.4-112.1-112.2-38.5 69.3-6.9 12.5-12.5 6.9-69.3 38.5 78.6 78.6 3.1 69.3-2.4 2.1-161.6-161.4 127.3-70.7 70.6-127.3 160.1 160.1-31.5 34.5 115.1-125.7 83.5 91.3 160.2-160.2 70.7 127.3 127.2 70.7-161.5 161.5zM512 88.9l-94 102.6-139-6.1 5.1 115.7 1 23.3-17.1 15.9-85.4 78.2 102.6 94-1 23.3-5.2 115.6 139-6.1 15.8 17.2 78.2 85.4 94-102.6 139 6.1-5.1-115.7-1-23.3 17.2-15.8 85.4-78.2-102.7-93.9 1-23.3 5.1-115.7-139 6.1-15.8-17.2-78.1-85.5z"  horiz-adv-x="1024" />

    
    <glyph glyph-name="xuanze-duoxuan-tianchong" unicode="&#58975;" d="M482.133333 249.60000000000002c-8.533333-8.533333-21.333333-8.533333-29.866666 0l-168.533334 168.533333c-8.533333 8.533333-21.333333 8.533333-29.866666 0-8.533333-8.533333-8.533333-21.333333 0-29.866666l183.466666-183.466667c17.066667-17.066667 42.666667-17.066667 59.733334 0l315.733333 315.733333c8.533333 8.533333 8.533333 21.333333 0 29.866667-8.533333 8.533333-21.333333 8.533333-29.866667 0L482.133333 249.60000000000002zM512 896C228.266667 896 0 667.733333 0 384s228.266667-512 512-512 512 228.266667 512 512S795.733333 896 512 896z m0-981.333333C251.733333-85.33333300000004 42.666667 123.73333300000002 42.666667 384S251.733333 853.333333 512 853.333333s469.333333-211.2 469.333333-469.333333-209.066667-469.333333-469.333333-469.333333z"  horiz-adv-x="1024" />

    
    <glyph glyph-name="download" unicode="&#58888;" d="M512 832a448 448 0 1 0-448-448 448 448 0 0 0 448 448m0 64a512 512 0 1 1 512-512 512 512 0 0 1-512 512zM739.84 329.6a31.36 31.36 0 0 1-45.44 44.16l-134.4-139.52V576a32 32 0 0 1-64 0v-346.24L348.16 373.12a32 32 0 0 1-44.8-45.44l223.36-219.52 15.36 16 28.8 28.8 167.68 173.44z"  horiz-adv-x="1024" />

    
    <glyph glyph-name="zhankai" unicode="&#59270;" d="M96 736h832c19.2 0 32-12.8 32-32s-12.8-32-32-32h-832c-19.2 0-32 12.8-32 32s12.8 32 32 32z m0-320h832c19.2 0 32-12.8 32-32s-12.8-32-32-32h-832c-19.2 0-32 12.8-32 32s12.8 32 32 32z m0-320h832c19.2 0 32-12.8 32-32s-12.8-32-32-32h-832c-19.2 0-32 12.8-32 32s12.8 32 32 32z"  horiz-adv-x="1024" />

    
    <glyph glyph-name="tuichu" unicode="&#59282;" d="M195.2 700.8c12.8 12.8 32 12.8 44.8 0 12.8-12.8 12.8-32 0-44.8-73.6-70.4-115.2-169.6-115.2-272 0-211.2 172.8-384 384-384s384 172.8 384 384c0 108.8-44.8 211.2-124.8 281.6-12.8 12.8-12.8 32-3.2 44.8 12.8 12.8 32 12.8 44.8 3.2 92.8-83.2 144-201.6 144-329.6 0-246.4-201.6-448-448-448s-448 201.6-448 448c6.4 121.6 54.4 233.6 137.6 316.8z m316.8 131.2c19.2 0 32-12.8 32-32v-384c0-19.2-12.8-32-32-32s-32 12.8-32 32v384c0 19.2 12.8 32 32 32z"  horiz-adv-x="1024" />

    
    <glyph glyph-name="icon--1" unicode="&#59243;" d="M396.8 435.2h-153.6c-15.36 0-25.6-10.24-25.6-25.6s10.24-25.6 25.6-25.6h153.6c15.36 0 25.6 10.24 25.6 25.6s-12.8 25.6-25.6 25.6z m0-204.8h-153.6c-15.36 0-25.6-10.24-25.6-25.6s10.24-25.6 25.6-25.6h153.6c15.36 0 25.6 10.24 25.6 25.6s-12.8 25.6-25.6 25.6z m0 102.4h-153.6c-15.36 0-25.6-10.24-25.6-25.6s10.24-25.6 25.6-25.6h153.6c15.36 0 25.6 10.24 25.6 25.6s-12.8 25.6-25.6 25.6z m435.2 256h-53.76L509.44 739.84c-12.8 7.68-28.16 2.56-35.84-10.24-7.68-12.8-2.56-25.6 10.24-33.28l194.56-107.52h-460.8c-56.32 0-102.4-46.08-102.4-102.4v-358.4c0-56.32 46.08-102.4 102.4-102.4h614.4c56.32 0 102.4 46.08 102.4 102.4V486.4c0 56.32-46.08 102.4-102.4 102.4z m51.2-460.8c0-28.16-23.04-51.2-51.2-51.2h-614.4c-28.16 0-51.2 23.04-51.2 51.2V486.4c0 28.16 23.04 51.2 51.2 51.2h614.4c28.16 0 51.2-23.04 51.2-51.2v-358.4z m-230.4 332.8c-84.48 0-153.6-69.12-153.6-153.6s69.12-153.6 153.6-153.6 153.6 69.12 153.6 153.6-69.12 153.6-153.6 153.6z m0-256c-56.32 0-102.4 46.08-102.4 102.4s46.08 102.4 102.4 102.4 102.4-46.08 102.4-102.4-46.08-102.4-102.4-102.4z"  horiz-adv-x="1024" />

    
    <glyph glyph-name="icon--" unicode="&#59261;" d="M204.8 537.6h102.4l89.6-122.88 33.28 40.96S340.48 578.56 332.8 588.8H204.8c-15.36 0-25.6-12.8-25.6-28.16 0-12.8 10.24-23.04 25.6-23.04z m512 0v-69.12c7.68-7.68 30.72-10.24 38.4-2.56l107.52 81.92c7.68 7.68 7.68 20.48 0 28.16l-107.52 81.92c-7.68 7.68-30.72 10.24-38.4 2.56V588.8h-128L307.2 204.8H204.8c-15.36 0-25.6-10.24-25.6-23.04 0-15.36 10.24-28.16 25.6-28.16h128l281.6 384h102.4z m38.4-261.12c-7.68 7.68-30.72 5.12-38.4-2.56V204.8h-102.4l-89.6 122.88-33.28-40.96 97.28-130.56h128v-74.24c7.68-7.68 30.72-5.12 38.4 2.56l107.52 81.92c7.68 7.68 7.68 20.48 0 28.16l-107.52 81.92z"  horiz-adv-x="1024" />

    
    <glyph glyph-name="zhibohuifang" unicode="&#59107;" d="M510.5 791C290.3 791 112 612.5 112 392.5 112 172.3 290.5-6 510.5-6S909 172.3 909 392.5 730.5 791 510.5 791z m0-597.8c-110.1 0-199.2 89.2-199.2 199.2H371c0-77 62.5-139.5 139.5-139.5S650 315.5 650 392.5 587.5 532 510.5 532c-33.4 0-63.7-12.3-87.7-31.8l-42.7 42.7c35 30.3 80.5 48.8 130.4 48.8 110.1 0 199.2-89.2 199.2-199.2s-89.1-199.3-199.2-199.3z m-69.7 194.2c0 19.7 1.2 39.1 3.5 58 2.4 19.8 21.1 31.9 37.9 24.7 30.9-13.4 59.9-30.9 86.3-52 15.7-12.5 15.7-38.2 0-50.7-26.8-21.4-56.2-39.1-87.6-52.5-17.3-7.4-36 5.8-37.9 26.1-1.6 15.3-2.2 30.7-2.2 46.4z"  horiz-adv-x="1024" />

    
    <glyph glyph-name="laba1" unicode="&#58940;" d="M571.9 20.5c-13 0-26.1 3.5-37.9 10.6l-199.6 119c-0.9 0.6-1.9 1.2-2.7 1.8-8 4.1-16.4 6.2-25 6.2H167.9c-56 0-101.6 50.6-101.6 112.7V495.7c0 62.2 45.6 112.7 101.6 112.7h138.8c9.7 0 19.5 2.8 28.3 8.1l199.6 119c23.1 13.8 50.9 14.1 74.3 0.9 26.2-14.9 42.4-44.2 42.4-76.5l-0.3-130.6-0.3-422.6c0-32.3-16.3-61.6-42.4-76.5-11.5-6.5-23.9-9.7-36.4-9.7zM841.4 148.4c-9 0-18 3.4-24.9 10.3-13.7 13.7-13.7 36 0 49.7 46.7 46.7 72.4 108.8 72.4 174.9s-25.7 128.2-72.4 174.9c-13.7 13.7-13.7 36 0 49.7 13.7 13.7 36 13.7 49.7 0 60-60 93-139.7 93-224.6s-33-164.6-93-224.6c-6.8-6.9-15.8-10.3-24.8-10.3zM722.9 229.6c-9 0-18 3.4-24.9 10.3-13.7 13.7-13.7 36 0 49.7 51.7 51.7 51.7 135.8 0 187.5-13.7 13.7-13.7 36 0 49.7 13.7 13.7 36 13.7 49.7 0 79.1-79.1 79.1-207.8 0-286.9-6.8-6.9-15.8-10.3-24.8-10.3z"  horiz-adv-x="1024" />

    
    <glyph glyph-name="nan" unicode="&#58899;" d="M895.547475 797.866667H585.50303c-16.678788 0-30.125253-13.446465-30.125252-30.125253s13.446465-30.125253 30.125252-30.125252h238.286869L680.662626 594.488889c-63.870707 54.30303-144.161616 84.040404-228.977778 84.040404-94.513131 0-183.466667-36.719192-250.311111-103.692929C134.4 507.862626 97.680808 419.038384 97.680808 324.525253s36.719192-183.337374 103.692929-250.311112 155.79798-103.692929 250.311111-103.692929 183.337374 36.719192 250.311112 103.692929c66.844444 66.973737 103.692929 155.79798 103.692929 250.311112 0 84.169697-29.090909 163.684848-82.618182 227.296969l142.351515 142.351515V457.69697c0-16.678788 13.446465-30.125253 30.125253-30.125253s30.125253 13.446465 30.125252 30.125253V767.741414c0 16.678788-13.575758 30.125253-30.125252 30.125253zM451.684848 30.771717C289.680808 30.771717 157.931313 162.521212 157.931313 324.525253s131.749495 293.753535 293.753535 293.753535c79.90303 0 152.307071-32.064646 205.187879-83.911111 0.905051-1.163636 1.810101-2.327273 2.844445-3.232323 1.034343-1.034343 2.19798-1.939394 3.10303-2.715152 50.941414-52.880808 82.488889-124.767677 82.488889-203.894949 0.129293-162.00404-131.749495-293.753535-293.624243-293.753536z m0 0"  horiz-adv-x="1024" />

    
    <glyph glyph-name="icon_quanping" unicode="&#58932;" d="M541.976961 308.001088c0-11.377778 4.411791-22.198277 12.538776-30.32526l315.048345-315.025125H588.64907a44.512653 44.512653 0 0 1-44.535873-44.559093c0-24.613152 19.922721-44.535873 44.535873-44.535873h384.638549c1.277098-0.13932 2.554195-0.278639 3.691973-0.278639 5.410249 0 10.10068 1.555737 14.373152 2.972154 1.973696 0.719819 3.970612 1.439637 5.967528 2.414875 0.696599 0.278639 1.695057 0.557279 2.856055 0.859138a16.253968 16.253968 0 0 1 8.823582 4.411792 14.419592 14.419592 0 0 1 3.274014 6.710567c0.13932 0.417959 0.278639 1.137778 0.441179 1.416417 3.970612 5.549569 6.687347 11.958277 7.825125 19.063583v0.417959c0.1161 0.13932 0.1161 0.13932 0.1161 0.301859a9.589841 9.589841 0 0 1 0.441179 2.693515v0.16254a8.289524 8.289524 0 0 1 0.580499 3.250793V306.584671c0 24.613152-20.062041 44.559093-44.675193 44.559093s-44.535873-19.945941-44.535873-44.559093v-285.605442L615.119819 338.303129c-8.126984 8.103764-18.924263 12.515556-30.325261 12.515556s-22.198277-4.411791-30.302041-12.515556a42.399637 42.399637 0 0 1-12.515556-30.302041zM0.510839 853.855782c-0.13932-0.696599-0.580499-1.857596-0.441179-3.274013v-388.493062a44.512653 44.512653 0 1 1 89.071746 0v285.605443l317.34712-317.347121c8.103764-8.103764 18.784943-12.515556 30.302041-12.515555a42.794376 42.794376 0 0 1 30.325261 73.142857L152.067483 806.045896h281.054331a44.512653 44.512653 0 1 1 0 89.071746H48.320726c-6.965986 0.859138-12.956735-1.137778-18.065125-2.856055a49.226304 49.226304 0 0 1-5.967528-2.391655 20.944399 20.944399 0 0 0-2.856055-0.835918 16.253968 16.253968 0 0 1-8.823583-4.411792 14.396372 14.396372 0 0 1-3.250793-6.687347C9.195102 877.493696 9.055782 876.773878 8.916463 876.495238a44.373333 44.373333 0 0 1-7.825125-19.063583v-0.441179c-0.13932-0.13932-0.13932-0.13932-0.13932-0.278639-0.16254-0.580499-0.441179-1.555737-0.441179-2.693515v-0.16254z m0 0"  horiz-adv-x="1024" />

    
    <glyph glyph-name="icon_quanpingquxiao" unicode="&#58935;" d="M0.000698 852.83013c0-11.39108 4.416949-22.22423 12.553436-30.360716L327.970822 507.075973H46.727374a44.587943 44.587943 0 1 1 0-89.199133h385.088255c1.278591-0.139483 2.557181-0.278965 3.69629-0.278965 5.416575 0 10.11249 1.557556 14.389956 2.975629a58.81517 58.81517 0 0 1 5.997753 2.417699c0.697413 0.278965 1.697038 0.55793 2.859393 0.860143a16.272972 16.272972 0 0 1 8.833899 4.416949 14.436451 14.436451 0 0 1 3.277842 6.718413c0.139483 0.418448 0.278965 1.139108 0.441695 1.418073 3.975255 5.556058 6.671918 11.972258 7.834273 19.085871v0.418448c0.139483 0.139483 0.139483 0.139483 0.139483 0.302213 0.139483 0.55793 0.441695 1.557556 0.441695 2.696663v0.139483a9.182606 9.182606 0 0 1 0.55793 3.277842V851.412057a44.680931 44.680931 0 0 1-89.315368 0v-285.939362L73.229071 883.167599A42.774669 42.774669 0 0 1 42.868355 895.697788 42.68168 42.68168 0 0 1 0.000698 852.83013zM547.516459 308.801435c-0.139483-0.72066-0.55793-1.859768-0.441695-3.277842v-388.924027a44.564696 44.564696 0 1 1 89.175886 0v285.939363l317.718152-317.718152c8.113239-8.113239 18.806906-12.553435 30.337468-12.553435 11.39108 0 22.22423 4.416949 30.360716 12.553435a42.84441 42.84441 0 0 1 0 60.698185L699.250298 260.93565h281.38293a44.541449 44.541449 0 0 1 44.587943 44.587943 44.541449 44.541449 0 0 1-44.587943 44.587943H595.382244c-6.997378 0.860143-12.971883-1.139108-18.109493-2.859393-1.976004-0.72066-3.975255-1.418073-5.974506-2.417699a20.643427 20.643427 0 0 0-2.859393-0.860143 16.086995 16.086995 0 0 1-8.833899-4.416949 14.366709 14.366709 0 0 1-3.277842-6.695166c-0.139483-0.441695-0.278965-1.139108-0.441695-1.44132a44.750673 44.750673 0 0 1-7.834273-19.062625v-0.441694c-0.139483-0.139483-0.139483-0.139483-0.139483-0.278966-0.139483-0.55793-0.418448-1.557556-0.418448-2.696664v-0.139482h0.023247z"  horiz-adv-x="1028" />

    
    <glyph glyph-name="huo" unicode="&#59105;" d="M510.401-64.053c-228.61 0-414.055 174.255-414.055 388.476 0 110.309 51.157 215.82 139.084 289.36 12.79 9.591 25.579 19.183 38.368 30.374C331.35 688.92 398.494 738.48 460.843 877.563 467.237 893.55 486.42 899.944 502.408 893.55 535.98 880.76 651.084 826.405 695.847 711.3c17.585-44.762 22.381-94.321 14.388-145.479 12.79 14.388 22.381 28.776 31.973 41.566 4.796 7.993 12.79 12.79 22.382 14.388 9.592 1.598 17.585-1.599 25.578-6.395 87.927-73.539 139.085-179.05 139.085-289.359 0-163.064-110.309-310.142-274.971-364.497-9.592-3.197-19.184-1.598-27.178 3.198-75.137 46.361-121.499 110.308-150.275 166.261 3.198-75.137 41.566-121.498 57.552-137.485 9.592-9.592 12.79-22.382 6.395-35.17-4.796-14.389-17.585-22.382-30.375-22.382z m-6.394 885.662C438.46 690.52 368.12 636.164 310.567 593c-12.789-9.591-23.98-19.183-35.17-28.775-73.539-60.75-115.104-148.677-115.104-239.8 0-156.67 121.499-289.36 282.964-318.136-28.776 54.355-51.157 142.282-6.394 257.386 4.796 12.79 19.184 22.381 33.572 20.783 14.388-1.599 25.578-12.79 28.776-27.178 0-1.598 25.578-150.275 148.676-233.405 129.492 51.157 215.82 169.458 215.82 300.55 0 79.933-31.973 158.268-91.124 217.418-23.98-30.374-59.15-65.545-108.71-95.92-12.789-6.394-27.177-4.796-38.367 3.198-9.593 9.592-12.79 23.98-7.994 36.769 35.17 73.539 39.967 140.683 17.586 199.834-23.98 62.348-78.335 108.71-131.091 135.886z"  horiz-adv-x="1024" />

    
    <glyph glyph-name="yishoucang2" unicode="&#59238;" d="M514.548 19.183a29.237 29.237 0 0 0-15.655 4.491c-0.242 0.122-0.485 0.364-0.85 0.485C424.619 71.126 356.29 126.59 295.245 188.97c-61.167 62.501-115.173 131.922-160.563 206.438-24.515 37.259-37.379 80.464-37.379 125.125 0 125.853 102.309 228.162 228.162 228.162 49.394 0 96.483-15.534 135.926-44.905 20.995-15.655 38.836-34.346 53.157-55.463 14.321 21.117 32.161 39.807 53.157 55.463 39.564 29.37 86.531 44.905 135.926 44.905 125.853 0 228.162-102.309 228.162-228.162 0-44.661-12.986-87.988-37.379-125.125-45.39-74.516-99.396-143.937-160.563-206.438-61.167-62.501-129.494-117.965-203.04-164.932-0.242-0.122-0.364-0.242-0.607-0.364-2.306-1.334-4.611-2.427-7.161-3.155-2.791-0.971-5.583-1.334-8.496-1.334z"  horiz-adv-x="1024" />

    
    <glyph glyph-name="tuijian" unicode="&#58909;" d="M927.536 467.836l-0.016 0.02c-17.781 28.595-48.783 46.952-80.946 47.912l-217.996 1.035 2.714 7.916a375.275 375.275 0 0 1 20.734 123.142c0 21.336-1.901 42.67-5.788 65.236l-3.836 16.548c-10.554 45.732-50.667 77.673-97.586 77.673-55.266 0-100.228-44.986-100.228-100.286 0-3.148 0.118-6.262 0.405-8.823-3.004-109.933-131.346-217.866-176.497-217.866l-155.917-0.071c-17.074 0-30.951-13.897-30.951-31.011l-0.384-436.147c0-16.78 14.85-29.845 34.527-30.408l134.95 0.273 5.258-0.883 3.639 0.51 515.088-0.136c16.805 1.194 33.36 6.584 47.47 15.575 14.828 9.519 27.628 23.26 33.382 35.817l6.642 11.084c35.476 84.662 79.199 348.829 79.619 351.445l0.628 9.886c1.675 21.95-3.476 43.216-14.911 61.56z m-698.81-434.142l-96.358-0.32 0.33 395.526 96.028 0.135v-395.341z m662.829 371.769l-0.243-1.604c-7.447-44.073-46.128-267.346-74.647-336.058l-0.458-0.9-3.977-6.314c-3.748-7.653-9.935-14.59-17.588-19.494-6.648-4.242-14.747-7.057-21.649-7.55L279.8 33.73V431.307l4.821 0.949c81.067 15.788 208.01 142.37 211.42 268.513l-0.374 5.922c-0.009 27.486 22.04 49.564 49.152 49.564 23.007 0 42.675-15.666 47.863-38.104l3.518-14.972c3.184-18.614 4.755-37.057 4.755-55.193 0-36.527-6.102-72.529-18.165-106.987l-26.22-75.172 278.586-0.06 7.416-0.73c16.856-0.603 32.562-9.672 41.61-24.213 5.872-9.451 8.137-20.36 7.374-35.361z"  horiz-adv-x="1024" />

    
    <glyph glyph-name="duihao2" unicode="&#59133;" d="M912 570.9c0-13.8-4.8-25.5-14.4-35.1L523.9 162.1l-70.3-70.3c-9.6-9.6-21.4-14.4-35.1-14.4-13.8 0-25.5 4.8-35.1 14.4l-70.3 70.3-186.7 186.8c-9.6 9.6-14.4 21.4-14.4 35.1 0 13.8 4.8 25.5 14.4 35.1l70.3 70.3c9.6 9.6 21.4 14.4 35.1 14.4 13.8 0 25.5-4.8 35.1-14.4L418.6 337l338.5 339.1c9.6 9.6 21.4 14.4 35.1 14.4 13.8 0 25.5-4.8 35.1-14.4l70.3-70.3c9.5-9.5 14.4-21.2 14.4-34.9z"  horiz-adv-x="1024" />

    
    <glyph glyph-name="qiandao_o" unicode="&#60333;" d="M810.666667 345.6c-59.733333-51.2-170.666667-89.6-298.666667-89.6s-238.933333 34.133333-298.666667 89.6V298.666667c0-72.533333 132.266667-128 298.666667-128s298.666667 55.466667 298.666667 128v46.933333z m0 81.066667V473.6c-59.733333-51.2-170.666667-89.6-298.666667-89.6s-238.933333 34.133333-298.666667 89.6V426.666667c0-72.533333 132.266667-128 298.666667-128s298.666667 55.466667 298.666667 128z m42.666666 128v-384c0-93.866667-153.6-170.666667-341.333333-170.666667s-341.333333 76.8-341.333333 170.666667V554.666667c0 93.866667 153.6 170.666667 341.333333 170.666666s341.333333-76.8 341.333333-170.666666z m-42.666666-384v46.933333c-59.733333-51.2-170.666667-89.6-298.666667-89.6s-238.933333 34.133333-298.666667 89.6V170.666667c0-72.533333 132.266667-128 298.666667-128s298.666667 55.466667 298.666667 128z m-298.666667 256c166.4 0 298.666667 55.466667 298.666667 128s-132.266667 128-298.666667 128-298.666667-55.466667-298.666667-128 132.266667-128 298.666667-128z"  horiz-adv-x="1024" />

    
    <glyph glyph-name="bofang" unicode="&#58978;" d="M512.3-32.1c-229.2 0-415 185.8-415 415s185.8 415 415 415 415-185.8 415-415-185.8-415-415-415z m2.4 75.3c186.2 0 337.2 151 337.2 337.2s-151 337.2-337.2 337.2-337.2-151-337.2-337.2 151-337.2 337.2-337.2z m-67.8 498.6l233.8-136.9c12.3-7.3 16.5-23.2 9.2-35.5-2.3-3.8-5.5-7-9.3-9.3L446.9 224.2c-12.4-7.2-28.3-3-35.5 9.3-2.3 4-3.5 8.5-3.5 13.1V519.5c0 14.3 11.6 25.9 26 25.9 4.5 0 9-1.2 13-3.6z"  horiz-adv-x="1024" />

    
    <glyph glyph-name="pifugexinghuazhuti-xianxing" unicode="&#59368;" d="M958.6 533.5l-0.1 0.5-0.1 0.5c-0.1 0.6-0.1 2.2-0.1 3.1v1.2l-1.7 7.5-0.2 0.6c-5.8 16.5-16 26.7-23.4 34.1l-5.4 5.4c-5.6 6.4-11.9 12.3-18.1 18.1-5.2 4.8-10.1 9.3-15.1 14.6l-0.2 0.2-132 128.9-1.4 1.4c-6.9 7-14.8 14.9-26.4 20.9-12.6 6.8-28.2 8.2-47.8 8.2-1.1 0-4 0-8 0.1-8.7 0.1-21.8 0.3-32.4 0.3-12.4 0-15.8-0.2-17.5-0.5-4.6-0.7-12.7-3.4-15.7-4.5l-1.2-0.4-16.9-11.3-0.2-0.1c-7.7-5.7-12.8-12.6-16.5-17.7l-0.4-0.5-0.1-0.2c-1.2-1.8-2.7-3.6-3.6-4.6-13.5-10.8-22.8-13.8-49-19.3l-0.3-0.1-0.3-0.1c-4.3-1.2-7.7-1.3-9.2-1.4l-16 0.8c-13.8 2.6-24.1 5-32.8 8.8l-0.3 0.1c-7.6 3-15.2 8.5-17.7 11.8l-1.3 1.7c-4.9 6.7-11.2 14.6-20.2 21.6-6.6 5.4-20.1 12.7-28.5 14.4-6.3 1.3-16.3 2-30.3 2-22.7 0-47.9-1.7-49-1.8l-0.9-0.1-22.6-5.6-0.7-0.3c-15.1-6-25.5-16.4-32.4-23.3L122.9 611.3c-4.1-3.6-7.7-7.2-11.2-10.7-3-3-5.9-5.9-10-9.6-12.2-10.5-30.6-26.4-36.2-55.8-3.2-16.6 3.2-31.3 6.7-39.2l0.2-0.4c6.3-14.1 16-23.1 23-29.7l1.3-1.2 0.5-0.4c1.1-0.8 2.6-2.3 3.7-3.4l5.1-5.1c5-5.5 10.4-10.4 15.6-15.2l17.3-17.3 31.9-30.6 9.1-9.1c0.6-0.6 1.2-1.3 1.9-1.9 3.6-3.6 8-8.1 13.9-12.3l0.2-0.2c13.1-8.8 29.4-13.9 44.7-13.9 6.8 0 13.2 0.9 19.1 2.8V72.3c0-11.5-0.1-24.4 4.7-36.7 6.5-16.8 20-29.5 29.6-35.3 15.8-10.3 35.1-11.7 53.7-11.7h296.2l26.7-0.4c22.1 0 47.3 1.2 67.1 16.1 12.7 9.7 22.5 25.6 26.2 42.5l0.1 0.5 0.6 5v0.5c0.4 27.1 0.4 53.3 0.4 80.9v225c6.8-2.1 13.8-3.2 21-3.2 4.7 0 9.5 0.5 14.3 1.4 27.3 5.1 44.7 25.1 55.1 37.2l83.9 81.3 2.3 2.9 0.9 1.3c6.1 8 20.1 26.8 16.1 53.9z m-147.1-94.2l-2.8-3.3-0.8-0.9c-5.8-6.4-13.6-15.2-18.9-16.2-0.9-0.2-1.8-0.3-2.6-0.3-4.2 0-7.8 2.9-16.8 11.4l-29 27.9-38.5-26.5v-297.6c0-13.1-0.1-26.4-0.2-39.3-0.1-12.1-0.2-24.5-0.2-36.7-0.8-1.6-2-3.2-2.5-3.7-4.3-3-21.5-3.4-28.7-3.4l-305.6 0.4-17-0.4c-14.7 0-18.8 1.3-19.8 1.8l-0.1 0.1c-1.4 0.9-3.6 3.4-4.4 4.8-0.6 3.1-0.6 11.8-0.6 16.7V432l-42.6 25-5.8-6.6c-3.6-4.1-13.5-15.2-16.1-17.8l-0.2-0.2c-6.2-6.5-11.3-11.7-17-13.9h-0.4c-2.5 0-6.6 1.5-8.4 2.7l-0.4 0.3-0.4 0.2c-1.1 0.6-2.9 2.4-4.5 4.2-0.6 0.6-1.3 1.3-1.9 2l-41.8 40.4a336.7 336.7 0 0 0-16.9 16.9l-0.7 0.7-2.3 1.7c-3.1 2.5-5.9 5.4-8.8 8.4-1 1.1-2.1 2.2-3.2 3.2l-5.7 6.1-0.1 0.1c-2.3 2.3-4.3 4.3-6.8 6.3-5.4 4.6-7.3 6.8-8.5 9.4-0.3 1-0.7 2.1-1.2 3.2-0.2 0.4-0.4 0.9-0.5 1.3 1.4 5.5 5 9.2 16.2 19.2l0.2 0.2 11.6 11.6c1.3 1.3 2.7 2.6 4.2 4 1.7 1.6 3.4 3.2 5.3 5.1l116.1 113.5 25.3 24.9 0.3 0.3c7.9 8.4 9.4 9.1 13.3 9.3l12 0.9h50.5c0.3-0.1 0.6-0.2 0.8-0.3 0.9-0.3 1.6-0.5 2-0.8l0.7-0.3 0.7-0.2c0.5-0.2 1.1-0.4 1.7-0.5 2.5-2.4 5-5.3 8-9.3l1.3-1.7 0.2-0.2c14.1-17.8 36.5-28.3 43-31.1l0.2-0.1c13.5-5.5 27.8-9.3 48-12.8l0.4-0.1 14.5-1.3c2.9-0.5 6-0.7 9.4-0.7 6.4 0 13.8 0.8 22.8 2.6 32.1 6.2 51.8 12.7 76.6 32.2 6.7 5.2 11.1 10.8 14.8 16 1.3 1.4 2.4 2.8 3.4 4 0.1 0.2 0.3 0.4 0.5 0.6l6 3.4c1 0.2 2.3 0.4 3.9 0.8h15c2.3 0 4.7 0.1 7 0.2 2.4 0.1 4.9 0.2 7.4 0.2h0.8c4.8 0.4 9.7 0.4 14.8 0.4 12.1 0 17-0.8 18.5-1.1 3.4-2 8.2-6.8 12.4-11l131.3-127.8c5.3-5.7 11-11 17.5-17 4.4-4 10.4-9.5 15.1-14.6l0.2-0.2 6-6 0.2-0.1c3.8-3.5 6-5.9 7.5-8.1v-0.1l0.6-4v-0.2c0.1-0.4 0.3-1.4-3.3-6.3l-82.2-79.8z"  horiz-adv-x="1024" />

    
    <glyph glyph-name="xinxi" unicode="&#58886;" d="M64.2 663.1v-597.4h896.1V663.1H64.2z m827.1-37.3l-379-275.6-379 275.6h758zM101.5 103V602.7L512.3 304 923 602.7V103H101.5z"  horiz-adv-x="1024" />

    
    <glyph glyph-name="shaixuan1" unicode="&#58969;" d="M504.2-53.8l-83.7 43c-37.7 19.4-61.5 59-61.5 102.3V347.7c0 6.2-2 12.2-5.6 17.2l-208.9 286C89.4 726.4 141.8 834 233.6 834h556.7c91.9 0 144.4-107.8 89.2-183.3L670.8 364.9c-3.6-5-5.6-11-5.6-17.2v-299.2c0-85-87-140.3-161-102.3zM465.5 62l55.8-28.7c27.7-14.2 60.3 6.5 60.3 38.3V366.8c0 12.4 3.9 24.4 11.1 34.3L796 679.5c20.7 28.3 1 68.7-33.4 68.7h-501c-34.5 0-54.2-40.5-33.5-68.8l203.2-278.2c7.2-9.9 11.2-22 11.2-34.4v-266.4c-0.1-16.3 8.9-31.1 23-38.4z"  horiz-adv-x="1024" />

    
    <glyph glyph-name="jiazai" unicode="&#58887;" d="M827.211075 674.323464m-54.351151 0a54.351151 54.351151 0 1 1 108.702302 0 54.351151 54.351151 0 1 1-108.702302 0ZM940.905298 380.600053m-67.086951 0a67.086952 67.086952 0 1 1 134.173903 0 67.086952 67.086952 0 1 1-134.173903 0ZM829.755035 85.404666m-78.974766 0a78.974766 78.974766 0 1 1 157.949532 0 78.974766 78.974766 0 1 1-157.949532 0ZM534.831643-32.64149m-91.48657 0a91.486571 91.486571 0 1 1 182.973141 0 91.486571 91.486571 0 1 1-182.973141 0ZM243.780191 90.044593m-101.902408 0a101.902408 101.902408 0 1 1 203.804816 0 101.902408 101.902408 0 1 1-203.804816 0ZM536.623615 788.129685m-107.854315 0a107.854315 107.854315 0 1 1 215.70863 0 107.854315 107.854315 0 1 1-215.70863 0ZM243.780191 671.779503m-107.854315 0a107.854315 107.854315 0 1 1 215.70863 0 107.854315 107.854315 0 1 1-215.70863 0ZM129.429978 383.992m-102.766395 0a102.766394 102.766394 0 1 1 205.532789 0 102.766394 102.766394 0 1 1-205.532789 0Z"  horiz-adv-x="1024" />

    
    <glyph glyph-name="jiangbei" unicode="&#58890;" d="M809.27 646.79h-18.54V777.16c0 11.42-9.27 20.69-20.69 20.69H253.97c-11.42 0-20.69-9.27-20.69-20.69v-339.77c0-7.99 0.33-15.93 1.03-23.75 11.5-135.78 120.8-244.13 257.04-254.14v-147.95h-164.8c-11.42 0-20.69-9.27-20.69-20.69s9.27-20.69 20.69-20.69h370.93c11.42 0 20.69 9.27 20.69 20.69s-9.27 20.69-20.69 20.69H532.73V159.49c136.2 10.02 245.45 118.36 256.96 254.14h19.58c31.04 0 60.3 12.13 82.36 34.18 22.02 22.06 34.18 51.32 34.18 82.36 0 64.31-52.27 116.62-116.54 116.62z m-297.23-446.7c-129.7 0-235.4 104.46-237.34 233.66-0.04 0.5-0.04 0.99 0 1.49-0.04 0.7-0.04 1.45-0.04 2.15V756.46h474.68v-319.08c0-0.7 0-1.45-0.04-2.15 0.04-0.5 0.04-0.99 0-1.49-1.94-129.2-107.6-233.65-237.26-233.65z m350.32 276.98c-14.24-14.24-33.11-22.06-53.1-22.06h-18.54v150.4h18.54c41.43 0 75.15-33.77 75.15-75.24 0.01-19.99-7.81-38.86-22.05-53.1zM749.3 435.23c0.04-0.5 0.04-0.99 0-1.49-0.04 0.21-0.04 0.37-0.04 0.58 0 0.29 0 0.62 0.04 0.91zM234.31 413.63h-19.58c-64.27 0-116.54 52.27-116.54 116.54 0 31.04 12.13 60.3 34.18 82.36 21.98 22.06 51.23 34.27 82.36 34.27h18.54v-41.38h-18.54c-20.03 0-38.86-7.86-53.06-22.14-14.28-14.24-22.1-33.11-22.1-53.1 0-41.43 33.73-75.15 75.15-75.15h18.54v-17.63c0.01-8 0.34-15.95 1.05-23.77zM274.74 434.32c0-0.21 0-0.37-0.04-0.58-0.04 0.5-0.04 0.99 0 1.49 0.04-0.29 0.04-0.62 0.04-0.91z"  horiz-adv-x="1024" />

    
    <glyph glyph-name="xin" unicode="&#58892;" d="M512 27.96c-3.36 0-6.71 0.81-9.76 2.44-4.11 2.19-101.77 54.63-200.96 140.63C165.73 288.55 97 406.69 97 522.17c0 120.14 97.74 217.87 217.88 217.87 100.98 0 167.42-63.62 197.13-99.95 29.71 36.33 96.14 99.95 197.13 99.95C829.26 740.04 927 642.3 927 522.17c0-115.48-68.73-233.62-204.28-351.14-99.19-85.99-196.85-138.44-200.96-140.63-3.05-1.63-6.4-2.44-9.76-2.44zM314.88 698.54c-97.25 0-176.38-79.12-176.38-176.37 0-225.47 313.68-415.51 373.49-449.69 59.82 34.21 373.51 224.45 373.51 449.69 0 97.25-79.12 176.37-176.38 176.37-114.51 0-178.74-103.37-179.37-104.41a20.792 20.792 0 0 0-17.74-9.98h-0.05c-7.26 0.02-13.99 3.81-17.74 10.02-0.61 1-64.84 104.37-179.34 104.37z"  horiz-adv-x="1024" />

    
    <glyph glyph-name="jianyi" unicode="&#59091;" d="M512 96.55999999999995c-24.12586667 0-48.2816 2.19413333-71.33546667 6.58453333l-167.84-102.048v168.96c-87.7888 61.45386667-143.712 155.792-143.712 261.12106667 0 185.41226667 171.1232 335.72693333 382.8864 335.72693333 211.73013333 0 382.88533333-150.31466667 382.88533334-335.72693333S723.72906667 96.55999999999995 512 96.55999999999995z m0 622.0608c-185.42826667 0-335.7408-128.36693333-335.7408-287.44426667 0-97.6384 57.06133333-183.21493333 142.64-234.78186666V84.48000000000002l113.01973333 68.02133333c26.30186667-5.48053333 52.64213333-8.7616 81.18506667-8.7616 185.39946667 0 335.712 128.36693333 335.712 287.43786667C847.7056 590.25493333 697.39413333 718.6208 512 718.6208z m167.8368-263.30026667H344.12906667c-13.16693333 0-24.12693333 10.976-24.12693334 24.12693334 0 13.16693333 10.95893333 24.13866667 24.128 24.13866666h335.70666667c13.20213333 0 24.16106667-10.9728 24.16106667-24.13866666-0.00106667-13.152-10.96-24.128-24.16-24.128z m-287.42613333-95.44533333h239.17546666c13.168 0 24.12586667-10.98986667 24.12586667-24.14186667 0-13.16906667-10.9568-24.1408-24.12586667-24.1408H392.41066667c-13.1648 0-24.1248 10.97173333-24.1248 24.1408 0 13.152 10.96106667 24.14293333 24.1248 24.14293334z m0 0"  horiz-adv-x="1024" />

    
    <glyph glyph-name="yishoucang3" unicode="&#58900;" d="M1019.733333 554.666667c-17.066667 132.266667-123.733333 238.933333-256 256-98.133333 12.8-187.733333-21.333333-251.733333-89.6C448 789.333333 354.133333 823.466667 260.266667 810.666667 128 793.6 21.333333 682.666667 4.266667 550.4c-12.8-89.6 17.066667-183.466667 81.066666-247.466667l349.866667-349.866666c21.333333-21.333333 46.933333-29.866667 76.8-29.866667s55.466667 12.8 76.8 29.866667l358.4 358.4c59.733333 68.266667 85.333333 153.6 72.533333 243.2z"  horiz-adv-x="1024" />

    
    <glyph glyph-name="bofang1" unicode="&#58895;" d="M514 781.6c-220 0-398.8-178.9-398.8-398.8S294-16 514-16s398.8 178.9 398.8 398.8S733.4 781.6 514 781.6z m0-754.9c-196.5 0-356.1 159.6-356.1 356.1-0.6 196.5 159.6 356.1 356.1 356.1s356.1-159.6 356.1-356.1S710.5 26.7 514 26.7zM698.2 423.7L448.3 567.9c-14.9 8.6-32.7 8.6-47.6 0-15-8.7-23.9-24.1-23.9-41.4v-288.3c0-17.3 8.9-32.8 23.9-41.4 7.5-4.3 15.7-6.5 23.8-6.5 8.2 0 16.3 2.1 23.8 6.4l249.9 144.2c15 8.6 23.9 24.1 23.9 41.5 0 17.2-8.9 32.7-23.9 41.3z m-21.3-45.9L427 233.7c-2-1.2-3.8-0.6-4.9 0-1.2 0.7-2.6 2-2.6 4.5V526.4c0 2.5 1.4 3.8 2.6 4.4 0.6 0.4 1.5 0.7 2.5 0.7 0.7 0 1.6-0.2 2.4-0.7l249.9-144.2c2.1-1.2 2.5-3.1 2.5-4.5 0-1.2-0.5-3.1-2.5-4.3z"  horiz-adv-x="1024" />

    
    <glyph glyph-name="daohangzhankai-" unicode="&#59154;" d="M914.4 221.1H394.7c-25.2 0-45.6 22-45.6 48.9s20.4 48.9 45.6 48.9h519.7c25.2 0 45.6-22 45.6-48.9s-20.4-48.9-45.6-48.9z m0 228.1H394.7c-25.2 0-45.6 22-45.6 48.9s20.4 48.9 45.6 48.9h519.7c25.2 0 45.6-22 45.6-48.9s-20.4-48.9-45.6-48.9z m-3.3 219.9H115.3c-26.9 0-50.5 20.4-51.3 47.2-0.8 27.7 21.2 50.5 48.9 50.5h795.8c26.9 0 50.5-20.4 51.3-47.2 0.8-27.7-21.2-50.5-48.9-50.5zM64 221.9V546.1L291.3 384 64 221.9c0-0.8 0-0.8 0 0z m48.9-123h795.8c26.9 0 50.5-20.4 51.3-47.2 0.8-27.7-21.2-50.5-48.9-50.5H115.3c-26.9 0-50.5 20.4-51.3 47.2-0.8 27.7 21.2 50.5 48.9 50.5z"  horiz-adv-x="1024" />

    
    <glyph glyph-name="dingdan" unicode="&#58883;" d="M688.028165 151.269681H289.417241c-18.245619 0-33.419272-10.379523-33.419272-23.272474s14.708203-23.272473 33.419272-23.272473h398.610924c18.245619 0 33.419272 10.379523 33.419272 23.272473s-15.173653 23.272473-33.419272 23.272474zM679.650075 895.895739v-1.023989c-4.189045 0-22.527754 1.535983-68.653797 1.023989H207.125775C131.117877 895.895739 69.818182 835.480398 69.818182 761.241208v-754.586677C69.818182-67.584659 131.117877-128 207.125775-128h609.738803c76.007898 0 137.307593 60.415341 137.307593 134.654531V626.633222L679.650075 895.849194z m207.962822-271.357039l-139.867565 2.047977h4.701039c-31.929833 0-76.985342 30.254215-76.985342 67.071269l-1.070533 139.26248 213.222401-208.381726z m7.354101-627.612063c0-37.887587-31.417839-69.119246-70.189779-69.119246H199.213134c-38.771941 0-70.18978 30.719665-70.18978 69.119246V770.457108c0 37.887587 31.417839 69.119246 70.18978 69.119246h412.853678a4386.395785 4386.395785 0 0 1 1.023989-137.726498c0-76.287168 62.882223-137.726498 140.938099-137.726497h140.938098v-567.196722zM688.028165 382.272252H289.417241c-18.245619 0-33.419272-10.007164-33.419272-22.38812 0-12.427501 14.708203-22.434664 33.419272-22.434664h398.610924c18.245619 0 33.419272 10.007164 33.419272 22.434664 0 12.380956-15.173653 22.388119-33.419272 22.38812zM524.422677 570.174202h-247.619117C265.074234 570.174202 255.997969 560.167038 255.997969 547.739537c0-12.380956 9.12281-22.388119 20.759046-22.388119h247.665662c11.636237 0 20.759046 10.007164 20.759046 22.388119 0 12.427501-9.12281 22.434664-20.759046 22.434665z"  horiz-adv-x="1024" />

    
    <glyph glyph-name="fangxiangsanjiao-xiangyou" unicode="&#58905;" d="M160 0l576 384L160 768v-768z m518.304 384L192 59.776V708.192L678.304 384"  horiz-adv-x="1024" />

    
    <glyph glyph-name="dingwei" unicode="&#58979;" d="M513.02-43.31l-21.492 30.306c-10.948 15.436-268.29 380.085-268.29 528.473 0 156.033 129.997 282.967 289.783 282.967 159.787 0 289.786-126.934 289.786-282.967 0-148.416-257.344-513.038-268.302-528.474l-21.484-30.305z m0 789.06c-130.729 0-237.094-103.306-237.094-230.279 0-99.716 155.208-347.308 237.095-467.092C594.91 168.162 750.118 415.781 750.118 515.47c0 126.974-106.352 230.28-237.097 230.28zM521.28 423.01c-57.216 0-103.754 46.538-103.754 103.731 0 57.215 46.538 103.754 103.754 103.754s103.755-46.539 103.755-103.754c0-57.194-46.539-103.732-103.755-103.732z m0 154.796c-28.157 0-51.067-22.91-51.067-51.067 0-28.145 22.91-51.042 51.067-51.042 28.171 0 51.066 22.897 51.066 51.042 0 28.157-22.895 51.067-51.066 51.067z"  horiz-adv-x="1024" />

    
    <glyph glyph-name="xueyuan-mulu" unicode="&#59081;" d="M866.166 779.833v-791.667H157.833V779.833h708.333m0 83.334H157.833c-46.021 0-83.333-37.313-83.333-83.333v-791.667c0-46.02 37.313-83.333 83.333-83.333h708.333c46.021 0 83.334 37.313 83.334 83.333V779.833c0 46.021-37.313 83.334-83.334 83.334zM743.771 572.619h-250c-23.011 0-41.667 18.656-41.667 41.667s18.656 41.667 41.667 41.667h250c23.01 0 41.667-18.656 41.667-41.667s-18.658-41.667-41.667-41.667zM342.729 572.619h-62.5c-23.01 0-41.666 18.656-41.666 41.667s18.656 41.667 41.666 41.667h62.5c23.011 0 41.667-18.656 41.667-41.667s-18.657-41.667-41.667-41.667zM743.771 360.908h-250c-23.011 0-41.667 18.656-41.667 41.667 0 23.01 18.656 41.666 41.667 41.666h250c23.01 0 41.667-18.656 41.667-41.666 0-23.011-18.658-41.667-41.667-41.667zM342.729 360.908h-62.5c-23.01 0-41.666 18.656-41.666 41.667 0 23.01 18.656 41.666 41.666 41.666h62.5c23.011 0 41.667-18.656 41.667-41.666 0-23.011-18.657-41.667-41.667-41.667zM743.771 149.197h-250c-23.011 0-41.667 18.657-41.667 41.667 0 23.011 18.656 41.667 41.667 41.667h250c23.01 0 41.667-18.656 41.667-41.667 0-23.01-18.658-41.667-41.667-41.667zM342.729 149.197h-62.5c-23.01 0-41.666 18.657-41.666 41.667 0 23.011 18.656 41.667 41.666 41.667h62.5c23.011 0 41.667-18.656 41.667-41.667 0-23.01-18.657-41.667-41.667-41.667z"  horiz-adv-x="1024" />

    
    <glyph glyph-name="clock" unicode="&#58902;" d="M512.072 16.265999999999963c-203.807 0-369.613 165.806-369.613 369.608s165.806 369.613 369.613 369.613S881.684 589.6800000000001 881.684 385.874s-165.81-369.608-369.612-369.608z m0 686.976c-174.997 0-317.364-142.366-317.364-317.363s142.367-317.358 317.364-317.358 317.363 142.367 317.363 317.358-142.372 317.363-317.363 317.363z m-375.476-97.157a26.127 26.127 0 0 0-21.8 40.479C155.694 708.767 211.4 761.216 275.9 798.228a26.132 26.132 0 0 0 35.661-9.656 26.117 26.117 0 0 0-9.656-35.66c-57.431-32.958-107.039-79.658-143.457-135.05a26.097 26.097 0 0 0-21.853-11.777z m750.95 0.01a26.112 26.112 0 0 0-21.856 11.776C829.27 673.26 779.663 719.96 722.232 752.9159999999999a26.127 26.127 0 1 0 26.01 45.312c64.497-37.012 120.207-89.456 161.106-151.659a26.117 26.117 0 0 0-21.801-40.474zM233.441-19.697000000000003a26.122 26.122 0 0 0-18.473 44.6L286.9 96.83000000000004a26.122 26.122 0 0 0 36.946-0.005 26.122 26.122 0 0 0 0-36.946l-71.93-71.925a26.045 26.045 0 0 0-18.474-7.65z m557.261 0a26.035 26.035 0 0 0-18.473 7.655l-71.92 71.926a26.127 26.127 0 0 0 36.95 36.94L809.18 24.899999999999977a26.127 26.127 0 0 0-18.478-44.596zM644.45 219.13099999999997a26.05 26.05 0 0 0-18.473 7.65L493.6 359.15200000000004a26.127 26.127 0 0 0-7.655 18.473V595.123a26.127 26.127 0 0 0 52.255 0v-206.669l124.728-124.718a26.138 26.138 0 0 0-18.478-44.605z"  horiz-adv-x="1024" />

    
    <glyph glyph-name="cloud" unicode="&#58908;" d="M700.652 102.87099999999998H289.879c-57.866 0-106.644 20.541-141.046 59.402-30.049 33.94-46.597 79.268-46.597 127.647 0 86.554 56.202 174.162 163.728 177.48 4.413 47.477 24.186 90.347 58.014 125.235 44.017 45.399 109.46 72.5 175.074 72.5 89.472 0 164.014-47.545 202.946-128.257a254.454 254.454 0 0 0 18.176 0.666c134.502 0 204.872-108.268 204.872-215.21 0-57.313-19.676-110.683-55.399-150.287-40.842-45.255-99.276-69.176-168.995-69.176z m-428.35 312.371c-80.952 0-117.821-64.962-117.821-125.327 0-35.087 12.2-68.987 33.47-93.01 24.206-27.336 59.453-41.784 101.928-41.784h410.773c54.517 0 99.537 17.955 130.19 51.927 27.05 29.982 41.949 70.927 41.949 115.287 0 78.484-47.764 162.964-152.627 162.964-9.861 0-20.178-0.773-30.659-2.304l-20.526-2.99-7.567 19.308c-28.298 72.181-87.48 113.577-162.37 113.577-51.764 0-103.19-21.166-137.565-56.622-30.239-31.186-45.501-70.969-44.14-115.037l0.917-29.716-29.588 2.908a168.899 168.899 0 0 1-16.364 0.82z"  horiz-adv-x="1024" />

    
    <glyph glyph-name="weishoucang1" unicode="&#58903;" d="M512 96.492308l322.953846 319.015384c31.507692 31.507692 51.2 78.769231 51.2 126.03077 0 47.261538-19.692308 90.584615-51.2 126.030769-31.507692 31.507692-78.769231 51.2-126.030769 51.2-47.261538 0-90.584615-19.692308-126.030769-51.2l-31.507693-31.507693-39.384615-39.384615-43.323077 43.323077-27.569231 27.569231c-35.446154 31.507692-78.769231 51.2-126.030769 51.2-47.261538 0-90.584615-19.692308-126.030769-51.2-31.507692-35.446154-51.2-78.769231-51.2-126.030769 0-47.261538 19.692308-90.584615 51.2-126.03077l322.953846-319.015384m0-82.707693l-362.338462 362.338462c-90.584615 90.584615-90.584615 240.246154 0 334.769231C192.984615 754.215385 252.061538 777.846154 315.076923 777.846154s122.092308-23.630769 165.415385-70.892308l31.507692-27.569231 27.569231 27.569231C582.892308 754.215385 645.907692 777.846154 708.923077 777.846154c63.015385 0 122.092308-23.630769 165.415385-70.892308 90.584615-90.584615 90.584615-240.246154 0-334.769231L512 13.784615z"  horiz-adv-x="1024" />

    
    <glyph glyph-name="zhankai1" unicode="&#58885;" d="M192 452.266667c-38.4 0-68.266667-29.866667-68.266667-68.266667 0-38.4 29.866667-68.266667 68.266667-68.266667s68.266667 29.866667 68.266667 68.266667c0 38.4-29.866667 68.266667-68.266667 68.266667zM512 452.266667c-38.4 0-68.266667-29.866667-68.266667-68.266667 0-38.4 29.866667-68.266667 68.266667-68.266667s68.266667 29.866667 68.266667 68.266667c0 38.4-29.866667 68.266667-68.266667 68.266667zM832 452.266667c-38.4 0-68.266667-29.866667-68.266667-68.266667 0-38.4 29.866667-68.266667 68.266667-68.266667s68.266667 29.866667 68.266667 68.266667c0 38.4-34.133333 68.266667-68.266667 68.266667z"  horiz-adv-x="1024" />

    
    <glyph glyph-name="ziyuan1" unicode="&#58907;" d="M512 896A512 512 0 1 1 1024 384 512.589353 512.589353 0 0 1 512 896z m0-965.064748A453.064748 453.064748 0 1 0 965.064748 384 453.580432 453.580432 0 0 0 512-69.064748zM735.953957 407.574101l-294.676259 221.007194a29.467626 29.467626 0 0 1-47.148202-23.574101v-442.014388a29.467626 29.467626 0 0 1 47.148202-23.574101l294.676259 221.007194a29.467626 29.467626 0 0 1 0 47.148202zM453.064748 221.928058v324.143884l216.071367-162.071942z"  horiz-adv-x="1024" />

    
    <glyph glyph-name="yinleyanzou" unicode="&#58882;" d="M511.4-117c-229.6 0-430.8 169.1-464.3 402.8C10.4 541.9 188.9 780.2 445.1 817c31.3 4.5 63.1 5.8 94.4 4 12.3-0.7 21.7-11.3 21-23.6-0.7-12.3-11.3-21.7-23.6-21-28.4 1.7-57.1 0.4-85.5-3.6C219.6 739.6 58 523.9 91.2 292.1 124.5 60.3 340.1-101.3 572-68.1c231.8 33.2 393.4 248.9 360.2 480.7-8.7 60.8-29.8 117.7-62.7 168.9-6.6 10.4-3.6 24.2 6.7 30.8 10.4 6.6 24.2 3.6 30.8-6.7 36.4-56.7 59.7-119.5 69.3-186.7 36.7-256.2-141.8-494.5-398-531.2-22.5-3.1-44.8-4.7-66.9-4.7zM777.7 690.1c-61.3 0-111.2 43.5-111.2 97s49.9 97 111.2 97 111.2-43.5 111.2-97-49.9-97-111.2-97z m0 149.3c-36.7 0-66.6-23.5-66.6-52.4s29.9-52.4 66.6-52.4c36.7 0 66.6 23.5 66.6 52.4s-29.9 52.4-66.6 52.4zM511.7 153c-109.9 0-199.3 89.4-199.3 199.3s89.4 199.3 199.3 199.3S711 462.3 711 352.4 621.6 153 511.7 153z m0 354.1c-85.3 0-154.7-69.4-154.7-154.7 0-85.3 69.4-154.7 154.7-154.7s154.7 69.4 154.7 154.7c0 85.3-69.4 154.7-154.7 154.7zM688.7 330.1c-12.3 0-22.3 10-22.3 22.3V788.8c0 12.3 10 22.3 22.3 22.3s22.3-10 22.3-22.3v-436.5c0-12.2-10-22.2-22.3-22.2z"  horiz-adv-x="1024" />

    
    <glyph glyph-name="saoyisao" unicode="&#58889;" d="M672 680a24 24 0 1 0 0 48h79.328c57.76 0 104.672-46.4 104.672-103.808V544a24 24 0 1 0-48 0V624.192c0 30.752-25.312 55.808-56.672 55.808H672zM808 224a24 24 0 1 0 48 0v-80.064c0-57.472-47.008-103.936-104.864-103.936H672a24 24 0 1 0 0 48h79.136c31.456 0 56.864 25.088 56.864 55.936V224zM352 88a24 24 0 1 0 0-48H272.192a104.16 104.16 0 0 0-104.192 104.128V224a24 24 0 1 0 48 0v-79.872c0-31.008 25.152-56.128 56.192-56.128H352zM216 544a24 24 0 1 0-48 0V625.408c0 56.704 46.304 102.592 103.36 102.592H352a24 24 0 1 0 0-48H271.36c-30.624 0-55.36-24.48-55.36-54.592V544zM192 361.888h640a24 24 0 0 1 0 48H192a24 24 0 1 1 0-48z"  horiz-adv-x="1024" />

    
    <glyph glyph-name="ziyuan" unicode="&#58898;" d="M512 704m-64 0a64 64 0 1 1 128 0 64 64 0 1 1-128 0ZM512 64m-64 0a64 64 0 1 1 128 0 64 64 0 1 1-128 0ZM512 384m-64 0a64 64 0 1 1 128 0 64 64 0 1 1-128 0Z"  horiz-adv-x="1024" />

    
    <glyph glyph-name="sousuo" unicode="&#58927;" d="M793.6 142.222222c2.844444-2.844444 8.533333-5.688889 11.377778-11.377778l167.822222-190.577777c2.844444-2.844444 2.844444-11.377778 0-14.222223L938.666667-105.244444c-2.844444-2.844444-11.377778-2.844444-14.222223 0l-173.511111 193.422222c-2.844444 5.688889-5.688889 8.533333-8.533333 14.222222-68.266667-45.511111-156.444444-73.955556-247.466667-73.955556-244.622222 0-426.666667 187.733333-426.666666 426.666667S258.844444 876.088889 494.933333 881.777778c230.4 5.688889 426.666667-187.733333 426.666667-426.666667 0-125.155556-51.2-244.622222-128-312.888889z m-298.666667 682.666667c-201.955556 0-369.777778-167.822222-369.777777-369.777778s167.822222-369.777778 369.777777-369.777778c213.333333 0 369.777778 162.133333 369.777778 369.777778 0 201.955556-164.977778 369.777778-369.777778 369.777778z"  horiz-adv-x="1024" />

    
    <glyph glyph-name="gedan" unicode="&#58934;" d="M964.608 661.504c-46.08 52.565333-104.789333 93.696-169.642667 118.784a34.030933 34.030933 0 0 1-46.421333-31.744v-420.352a178.005333 178.005333 0 0 1-110.933333 38.741333c-98.816 0-179.2-80.384-179.2-179.2S538.794667 8.533333 637.610667 8.533333s179.2 80.384 179.2 179.2c0 1.877333-0.170667 3.754667-0.341334 5.632 0 1.024 0.341333 1.877333 0.341334 2.901334V694.784c36.181333-20.309333 69.12-46.933333 96.597333-78.165333 12.458667-14.165333 34.133333-15.530667 48.128-3.072 14.165333 12.288 15.530667 33.792 3.072 47.957333zM637.610667 76.8c-61.098667 0-110.933333 49.834667-110.933334 110.933333s49.834667 110.933333 110.933334 110.933334 110.933333-49.834667 110.933333-110.933334-49.834667-110.933333-110.933333-110.933333zM185.344 588.8h392.533333c18.773333 0 34.133333 15.36 34.133334 34.133333s-15.36 34.133333-34.133334 34.133334h-392.533333a34.133333 34.133333 0 1 1 0-68.266667zM424.277333 435.2h-238.933333c-18.773333 0-34.133333-15.36-34.133333-34.133333s15.36-34.133333 34.133333-34.133334h238.933333c18.773333 0 34.133333 15.36 34.133334 34.133334s-15.36 34.133333-34.133334 34.133333zM321.877333 213.333333h-136.533333c-18.773333 0-34.133333-15.36-34.133333-34.133333s15.36-34.133333 34.133333-34.133333h136.533333c18.773333 0 34.133333 15.36 34.133334 34.133333s-15.36 34.133333-34.133334 34.133333z"  horiz-adv-x="1024" />

    
    <glyph glyph-name="yinle" unicode="&#58939;" d="M875.008 600.576a34.133333 34.133333 0 1 1-58.197333-35.669333c35.328-57.514667 53.930667-123.562667 53.930666-191.488 0-201.898667-164.352-366.250667-366.250666-366.250667S138.24 171.52 138.24 373.418667 302.592 739.669333 504.490667 739.669333c18.773333 0 34.133333 15.36 34.133333 34.133334s-15.36 34.133333-34.133333 34.133333C264.874667 807.936 69.973333 613.034667 69.973333 373.418667s194.901333-434.517333 434.517334-434.517334 434.517333 194.901333 434.517333 434.517334c0.170667 80.384-22.016 159.061333-64 227.157333zM501.248 506.026667c-77.653333 0-140.8-63.146667-140.8-140.8s63.146667-140.8 140.8-140.8 140.8 63.146667 140.8 140.8V671.744c0 19.456 15.872 35.328 35.328 35.328 19.456 0 35.328-15.872 35.328-35.328 0-18.773333 15.36-34.133333 34.133333-34.133333s34.133333 15.36 34.133334 34.133333c0 57.173333-46.421333 103.594667-103.594667 103.594667s-103.594667-46.421333-103.594667-103.594667v-186.026667a140.526933 140.526933 0 0 1-72.533333 20.309334z m0-213.333334a72.704 72.704 0 0 0-72.533333 72.533334 72.704 72.704 0 0 0 72.533333 72.533333 72.704 72.704 0 0 0 72.533333-72.533333 72.704 72.704 0 0 0-72.533333-72.533334z"  horiz-adv-x="1024" />

    
    <glyph glyph-name="bofang4" unicode="&#58884;" d="M512 783c220 0 399-179 399-399S732-15 512-15 113 164 113 384s179 399 399 399m0 42C268.4 825 71 627.6 71 384s197.4-441 441-441 441 197.4 441 441S755.6 825 512 825zM440.3 198.4c-29.9 0-54.3 24.3-54.3 54.3V515.4c0 29.9 24.4 54.3 54.3 54.3 9.4 0 18.7-2.5 27-7.3L694.9 431c17-9.8 27.1-27.4 27.1-47s-10.1-37.2-27.1-47L467.4 205.7c-8.4-4.8-17.7-7.3-27.1-7.3z m0 329.2c-5.9 0-12.3-4.7-12.3-12.3v-262.7c0-10.3 10.9-14.9 18.4-10.6l227.5 131.4c5.5 3.2 6.1 8.4 6.1 10.6s-0.6 7.4-6.1 10.6L446.4 526c-2 1.1-4 1.6-6.1 1.6z"  horiz-adv-x="1024" />

    
    <glyph glyph-name="cha" unicode="&#58894;" d="M560.265 384L512 432.265l248.934 248.934 48.265-48.265L560.265 384l248.934-248.934-48.265-48.265L512 335.735 263.066 86.801 214.8 135.066 463.735 384 512 335.735 263.066 86.801 214.8 135.066 463.735 384 214.801 632.934l48.265 48.265L512 432.265l248.934 248.934 48.265-48.265z"  horiz-adv-x="1024" />

    
    <glyph glyph-name="xiangqing-copy" unicode="&#60334;" d="M512-11.5078125C294.07519531-11.5078125 116.4921875 166.07519531000003 116.4921875 384S294.07519531 779.5078125 512 779.5078125s395.5078125-177.58300781 395.5078125-395.5078125-177.58300781-395.5078125-395.5078125-395.5078125z m0 751.46484375c-196.171875 0-355.95703125-159.78515625-355.95703125-355.95703125s159.78515625-355.95703125 355.95703125-355.95703125 355.95703125 159.78515625 355.95703125 355.95703125-159.78515625 355.95703125-355.95703125 355.95703125zM507.64941406 150.65039062000005c-16.21582031-9.09667969-29.66308594-13.84277344-39.94628906-13.84277343-9.09667969 0-16.21582031 2.76855469-21.75292969 8.30566406-5.14160156 5.53710938-7.91015625 13.44726563-7.91015625 23.33496094 0 31.640625 19.37988281 109.16015625 58.53515625 232.55859375 1.97753906 5.93261719 2.76855469 11.07421875 2.76855469 15.42480468 0 5.14160156-2.37304688 7.51464844-7.11914062 7.51464844-5.14160156 0-11.07421875-1.97753906-17.79785157-5.93261719-6.72363281-3.95507813-21.35742188-17.00683594-44.296875-38.75976562L413.12304687 392.30566406c26.10351563 28.08105469 49.43847656 47.85644531 70.79589844 59.72167969 21.35742188 11.86523438 39.55078125 17.79785156 54.58007813 17.79785156 8.30566406 0 14.63378906-1.58203125 18.984375-5.14160156 4.35058594-3.55957031 6.72363281-8.30566406 6.72363281-14.63378906 0-7.51464844-8.30566406-38.75976563-25.3125-93.73535157-27.29003906-90.17578125-41.1328125-144.36035156-41.1328125-162.94921874 0-3.55957031 0.79101563-6.72363281 2.76855469-9.09667969 1.97753906-2.37304688 3.95507813-3.55957031 5.93261719-3.55957032 8.30566406 0 29.66308594 15.8203125 63.67675781 47.06542969l15.02929687-14.63378906c-35.20019531-32.43164063-60.90820313-53.39355469-77.51953125-62.49023438zM599.01171875 573.84375c-7.91015625-8.70117188-16.61132813-12.65625-26.49902344-12.65625-7.91015625 0-14.23828125 2.76855469-19.37988281 7.91015625-5.14160156 5.14160156-7.91015625 12.26074219-7.91015625 20.96191406 0 11.46972656 3.55957031 20.96191406 11.46972656 29.26757813 7.51464844 7.91015625 16.61132813 11.86523438 26.89453125 11.86523437 7.91015625 0 14.63378906-2.76855469 19.77539063-7.91015625 5.14160156-5.14160156 7.91015625-11.86523438 7.91015625-20.17089844-0.39550781-10.67871094-4.35058594-20.56640625-12.26074219-29.26757812z"  horiz-adv-x="1024" />

    
    <glyph glyph-name="bofang3-copy" unicode="&#60335;" d="M964.71320462 589.04834162c-24.80141767 58.56860615-60.19874702 111.08240611-105.26047801 156.1441371-45.06173099 45.06173099-97.69196999 80.57549824-156.1441371 105.26047801-60.54806187 25.61648754-124.93859726 38.65760882-191.30858951 38.65760882S381.35591139 876.18588331 320.69141049 850.45295673c-58.56860615-24.80141767-111.08240611-60.19874702-156.1441371-105.26047801s-80.57549824-97.69196999-105.26047801-156.1441371c-25.61648754-60.54806187-38.65760882-124.93859726-38.65760882-191.30858951s13.04112128-130.64408861 38.65760882-191.30858952c24.80141767-58.56860615 60.19874702-111.08240611 105.26047801-156.1441371 45.06173099-45.06173099 97.69196999-80.57549824 156.1441371-105.260478 60.54806187-25.61648754 124.93859726-38.65760882 191.30858951-38.65760882s130.64408861 13.04112128 191.30858951 38.65760882c58.56860615 24.80141767 111.08240611 60.19874702 156.1441371 105.260478 45.06173099 45.06173099 80.57549824 97.69196999 105.26047801 156.1441371 25.61648754 60.54806187 38.65760882 124.93859726 38.65760882 191.30858952S990.44613006 528.38384071 964.71320462 589.04834162zM512-42.39808512000002c-242.65800363 0-440.13783723 197.4798336-440.13783723 440.13783723s197.4798336 440.13783723 440.13783723 440.13783722 440.13783723-197.4798336 440.13783723-440.13783722S754.65800363-42.39808512000002 512-42.39808512000002zM659.17836629 401.93154162L451.33549909 548.0619611c-9.54796373 6.63699911-22.35620807-0.11643904-22.35620807-11.76029639l0-292.26083897c0-11.64385849 12.80824434-18.3972955 22.35620807-11.76029639l207.95930624 146.13041948C667.44550627 384.11643904 667.32906723 396.22605141 659.17836629 401.93154162z"  horiz-adv-x="1024" />

    
    <glyph glyph-name="zanting1-copy" unicode="&#60336;" d="M511.30447645 891.61910045c-280.30179555 0-508.35433245-228.05128533-508.35433245-508.35433245 0-280.29952 228.05128533-508.35433245 508.35433245-508.35433245 280.30179555 0 508.356608 228.05367467 508.356608 508.35433245C1019.66108445 663.56667733 791.606272 891.61910045 511.30447645 891.61910045zM511.30447645-61.54581332999999c-245.27246222 0-444.80944355 199.53937067-444.80944356 444.81058133 0 245.2736 199.53698133 444.81058133 444.80944356 444.81058133 245.27246222 0 444.81058133-199.53698133 444.81058133-444.81058133C956.11505778 137.99241955000002 756.57568711-61.54581332999999 511.30447645-61.54581332999999zM415.987712 605.67017245c-17.56012089 0-31.77301333-14.24201955-31.77301333-31.77301334V192.63138475000005c0-17.52871822 14.21175467-31.77301333 31.77301333-31.77301334 17.53099378 0 31.77187555 14.24543289 31.77187555 31.77301334V573.8971136C447.75958755 591.42815289 433.51870578 605.67017245 415.987712 605.67017245zM606.61998933 605.67017245c-17.56137245 0-31.77187555-14.24201955-31.77187555-31.77301334V192.63138475000005c0-17.52871822 14.20936533-31.77301333 31.77187555-31.77301334 17.53099378 0 31.77301333 14.24543289 31.77301334 31.77301334V573.8971136C638.39300267 591.42815289 624.15098311 605.67017245 606.61998933 605.67017245z"  horiz-adv-x="1024" />

    
    <glyph glyph-name="cha-copy" unicode="&#60339;" d="M578.64628234 384L512 450.64628234l343.73822944 343.73822944 66.64628234-66.64628234L578.64628234 384l343.73822944-343.73822944-66.64628234-66.64628234L512 317.35371766000003 168.26177056-26.384511780000025 101.6141074 40.261770559999945 445.35371766 384 512 317.35371766000003 168.26177056-26.384511780000025 101.6141074 40.261770559999945 445.35371766 384 101.61548822 727.7382294399999l66.64628234 66.64628234L512 450.64628234l343.73822944 343.73822944 66.64628234-66.64628234z"  horiz-adv-x="1024" />

    
    <glyph glyph-name="danquxunhuan-copy" unicode="&#60342;" d="M1016.86992592 426.71976297c-23.30168889 0-38.83614815-15.53445925-38.83614814-38.83614815v-104.8576c0-132.0429037-104.8576-240.78411852-240.78411853-240.78411852H135.28936297l50.48699258 46.60337778c7.76722963 7.76722963 15.53445925 19.41807408 15.53445927 31.06891851 0 23.30168889-19.41807408 42.71976297-42.71976297 42.71976296-11.65084445 0-27.1853037-3.88361482-34.95253333-11.65084444l-132.0429037-120.39205926c-19.41807408-15.53445925-15.53445925-42.71976297 0-58.25422222l132.0429037-116.50844445c7.76722963-7.76722963 23.30168889-15.53445925 34.95253333-15.53445926 23.30168889 0 42.71976297 15.53445925 46.60337778 38.83614816 0 15.53445925-7.76722963 27.1853037-19.41807408 34.95253333l-58.25422222 54.37060741h605.84391112c178.64628148 0 322.34002963 143.69374815 322.34002963 314.5728v104.8576c0 23.30168889-15.53445925 38.83614815-38.83614816 38.83614815zM7.13007408 329.62939258999995c23.30168889 0 38.83614815 15.53445925 38.83614814 38.83614816v108.7412148c0 135.92651852 108.74121482 244.66773333 240.78411853 248.55134815h601.96029628l-50.48699258-46.60337778c-7.76722963-7.76722963-15.53445925-19.41807408-15.53445927-31.06891851 0-23.30168889 19.41807408-42.71976297 42.71976297-42.71976296 11.65084445 0 27.1853037 3.88361482 34.95253333 11.65084444l128.15928889 120.39205926c19.41807408 15.53445925 15.53445925 42.71976297 0 58.25422222l-132.0429037 116.50844445c-7.76722963 7.76722963-23.30168889 15.53445925-34.95253334 15.53445926-23.30168889 0-42.71976297-15.53445925-46.60337778-38.83614816 0-15.53445925 7.76722963-27.1853037 19.41807408-34.95253333l58.25422222-54.37060741H290.63395555C111.98767408 799.54678518-31.70607408 655.85303703-31.70607408 473.32314075v-104.8576c0-23.30168889 15.53445925-38.83614815 38.83614816-38.83614816zM550.83614815 189.81925924999996V578.18074075h-58.25422223L395.49155555 508.27567408l19.41807408-50.4869926 73.78868148 50.4869926V189.81925924999996z"  horiz-adv-x="1024" />

    
    <glyph glyph-name="xunhuanbofang-copy" unicode="&#60343;" d="M733.36604445-31.54678518000003H127.52213333l58.25422222-54.37060741c11.65084445-7.76722963 19.41807408-19.41807408 19.41807408-34.95253333-3.88361482-23.30168889-23.30168889-38.83614815-46.60337778-38.83614816-11.65084445 0-27.1853037 7.76722963-34.95253333 15.53445926l-132.0429037 116.50844445c-15.53445925 15.53445925-19.41807408 42.71976297 0 58.25422222L123.63851852 150.98311110999998c7.76722963 7.76722963 23.30168889 11.65084445 34.95253333 11.65084444 23.30168889 0 42.71976297-19.41807408 42.71976297-42.71976296 0-11.65084445-7.76722963-23.30168889-15.53445927-31.06891851l-50.48699258-46.60337778h601.96029628c135.92651852 0 240.78411852 108.74121482 240.78411853 240.78411852v104.8576c0 23.30168889 15.53445925 38.83614815 38.83614814 38.83614815s38.83614815-15.53445925 38.83614816-38.83614815v-104.8576c0-170.87905185-143.69374815-314.5728-322.34002963-314.5728zM290.63395555 799.54678518h601.9602963l-58.25422222 54.37060741c-11.65084445 7.76722963-19.41807408 19.41807408-19.41807408 34.95253333 3.88361482 23.30168889 23.30168889 38.83614815 46.60337778 38.83614816 11.65084445 0 27.1853037-7.76722963 34.95253334-15.53445926l132.0429037-116.50844445c15.53445925-15.53445925 19.41807408-42.71976297 0-58.25422222L900.36148148 617.01688889c-7.76722963-7.76722963-23.30168889-11.65084445-34.95253333-11.65084444-23.30168889 0-42.71976297 19.41807408-42.71976297 42.71976296 0 11.65084445 7.76722963 23.30168889 15.53445927 31.06891851l50.48699258 46.60337778H286.75034075C154.70743703 721.8744888900001 45.96622222 613.13327408 45.96622222 477.20675555v-108.7412148c0-23.30168889-15.53445925-38.83614815-38.83614814-38.83614816s-38.83614815 15.53445925-38.83614816 38.83614816v104.8576C-31.70607408 655.85303703 111.98767408 799.54678518 290.63395555 799.54678518z"  horiz-adv-x="1024" />

    
    <glyph glyph-name="laba-copy" unicode="&#60344;" d="M949.88112387 87.88157933000002L949.9556383 87.88157933000002 949.9556383 88.3299111ZM793.62962227 771.3917016c-5.84320918 3.50716754-11.65288577 6.37350586-18.74173527 6.37350586-17.30980765 0-31.26147786-14.02866893-31.26147785-31.31860583 0-12.48248537 7.38939275-22.47617316 17.83513695-28.1504815 114.9056754-67.04973354 192.17140091-191.49579878 192.17140091-334.11728573 0-142.50971409-77.19369296-266.91479628-191.94661364-333.96701412-10.06696069-5.50789181-18.74173527-15.83813852-18.74173528-28.62116713 0-17.3085649 14.02866893-31.33599229 31.30121816-31.33599228 6.93733513 0 12.44274384 2.67260055 18.4772077 6.14499397 133.34314158 77.83452095 223.0218042 222.2679618 223.0218042 387.77917834C1015.74731245 549.31375294 926.44867611 693.46279424 793.62962227 771.3917016zM829.90595125 384.16020639c0 97.04818461-52.60378234 181.7281398-130.85558678 227.3002006-3.54442476 1.84796957-11.87643028 5.48677951-17.72336529 5.48677951-17.38556363 0-31.45024822-14.06592614-31.45024824-31.43286177 0-11.67027222 6.18473548-22.06013121 15.61335247-27.50841076 60.48621454-34.35508653 101.28932257-99.31095214 101.28932257-173.84570636 0-75.81889331-42.23627841-141.77325936-104.4574469-175.67380519-9.05107502-5.50789181-15.04579735-15.53883682-15.04579735-26.92843656 0-17.38556363 14.0646846-31.4862639 31.41174947-31.4862639 7.39187583-0.03849876 16.17842327 4.2995087 16.17842329 4.2995087C775.41694335 199.31982870000002 829.90595125 285.33856907999996 829.90595125 384.16020639zM547.64357405 854.07217406c-13.16305366 6.33500709-28.8124218 4.60005194-40.31131011-4.50566674-0.52905514-0.43466994-56.34070331-44.80083195-117.95954378-90.16797625-107.17351481-78.98453455-138.39773423-92.14510512-144.73398409-94.2377315l-134.25098144 0c-0.77371316 0-1.50892635-0.07575719-2.28139675-0.11301441l-68.57604757 0c-17.27130768 0-31.28134861-14.01003971-31.2813486-31.28134861l0-499.64837303c0-17.3085649 13.97154096-31.26520369 31.2813486-31.26520369l229.99639655-0.03353137c6.18473548-2.26401029 35.6752425-15.87415419 130.78231389-93.44911497 55.358349-45.10137518 104.98526049-89.18438039 105.51307529-89.60166389 7.0888495-6.33376556 16.13992331-9.61241998 25.26799705-9.61241998 5.27813715 0 10.59477428 1.12890007 15.61086817 3.35565315 13.68714262 6.14623551 22.47368886 19.72408957 22.47368886 34.73387127 0 0 0.03849876 118.03405941 0.03849875 160.4566239 0.98111276 3.01536839 1.47291068 6.22323424 1.47291068 9.54287293 0 3.38918574-1.51141066 701.51043421-1.51141064 701.51043421C569.17464891 834.38658324 560.80538617 847.6986682 547.64357405 854.07217406zM507.51979278 123.71206083000004c0-1.81319543-0.5675551-114.83116097-0.56755512-114.83116096-16.85650849 14.25469774-35.59824377 29.90406466-54.90504984 45.51990022-126.93362005 102.79700738-158.38510982 111.4307989-179.65414143 111.4307989-0.45205641 0-0.82959959-0.1105301-1.24439877-0.1105301s-0.79234116 0.1105301-1.24439879 0.1105301L97.41719719 165.83159898999997c-21.89123038 0-27.00170945 6.22447699-27.00170946 28.21257686L70.41548652 577.50149044c0 14.95389525 1.77345392 24.34277072 19.779976 24.34277073l155.42438511 0c20.74121799 0 52.5690082 8.48476145 191.49579878 110.2460124 24.73769916 18.10090727 48.94634318 36.3346985 69.83783279 52.32435139 0 0 0.45329917-540.31735436 0.56755511-632.74809936C506.87772323 129.10321238999995 507.51979278 126.42564445000005 507.51979278 123.71206083000004z"  horiz-adv-x="1024" />

    
    <glyph glyph-name="shoucang-copy" unicode="&#60345;" d="M421.92499143 831.39242667H252.16442064a24.85513482 24.85513482 0 0 1 0-49.71026964h169.76057079c47.42359723 0 85.99876645-38.97285139 85.99876646-86.99297185v-6.46233505a24.85513482 24.85513482 0 0 1 24.85513481-24.85513481h440.33356839c47.37388695 0 85.70050484-38.77401031 85.70050483-87.29123347V458.56540445a24.85513482 24.85513482 0 1 1 49.71026963 0V576.0804818500001c0 75.85787146-60.44768787 137.00150309-135.41077446 137.0015031h-416.67148004a136.15642851 136.15642851 0 0 1-134.51598962 118.31044172zM1058.81296592 359.14486518v-342.9014399c0-43.84445781-37.87922546-79.63585195-85.99876645-79.63585195H356.10859444a24.85513482 24.85513482 0 1 1 0-49.71026963H972.81419947c74.9630866 0 135.70903609 57.41536142 135.70903608 129.34612158V359.14486518a24.85513482 24.85513482 0 1 1-49.71026963 0zM252.16442064-63.39242666999996H52.03087511c-47.42359723 0-86.84384105 43.89416809-86.84384103 99.66909062V210.0140563a24.85513482 24.85513482 0 1 1-49.71026963 0v-173.73739235c0-82.07165516 60.44768787-149.37936023 136.55411066-149.37936025h200.13354553a24.85513482 24.85513482 0 1 1 0 49.71026963zM-34.81296592 259.72432591999996V703.2393515599999c0 42.55199081 39.46995408 78.44280547 88.38485939 78.44280547h146.64529542a24.85513482 24.85513482 0 0 1 0 49.71026964h-146.64529542C-21.78887529 831.39242667-84.52323555 774.3747474-84.52323555 703.2393515599999V259.72432591999996a24.85513482 24.85513482 0 1 1 49.71026963 0zM288.30378667 582.84107852v-298.26161777a24.85513482 24.85513482 0 1 1 49.71026963 0v298.26161777a24.85513482 24.85513482 0 0 1-49.71026963 0zM164.02811259 408.85513482h298.26161778a24.85513482 24.85513482 0 1 1 0 49.71026963h-298.26161778a24.85513482 24.85513482 0 1 1 0-49.71026963z"  horiz-adv-x="1024" />

    
    </font>
</defs>
</svg>
